<svg width="20" height="20" viewBox="0 0 20 20" version="1.1" xmlns="http://www.w3.org/2000/svg" xmlns:xlink="http://www.w3.org/1999/xlink">
<title>Vector</title>
<desc>Created using Figma</desc>
<g id="Canvas" transform="translate(12784 -786)">
<g id="Vector">
<use xlink:href="#path0_fill" transform="translate(-12784 786)"/>
</g>
</g>
<defs>
<path id="path0_fill" fill-rule="evenodd" d="M 10 20C 15.5228 20 20 15.5228 20 10C 20 4.47715 15.5228 0 10 0C 4.47715 0 0 4.47715 0 10C 0 15.5228 4.47715 20 10 20ZM 10.0005 13.7216L 14.398 15.9681C 14.4382 15.9915 14.4844 16.0024 14.5308 15.9994C 14.5772 15.9964 14.6216 15.9796 14.6584 15.9512C 14.6952 15.9228 14.7227 15.8841 14.7373 15.84C 14.7519 15.796 14.753 15.7486 14.7405 15.7038L 13.5964 11.0864C 13.5898 11.0472 13.5927 11.007 13.6049 10.9691C 13.6171 10.9312 13.6382 10.8968 13.6664 10.8688L 16.9276 7.66611C 16.9594 7.63446 16.9821 7.59479 16.9932 7.55131C 17.0044 7.50783 17.0035 7.46215 16.9907 7.41913C 16.9779 7.3761 16.9538 7.33733 16.9207 7.30691C 16.8877 7.27649 16.847 7.25557 16.8031 7.24635L 12.2577 6.46901L 10.2963 2.13143C 10.2772 2.092 10.2473 2.05875 10.2101 2.03548C 10.173 2.01222 10.13 1.99988 10.0861 1.99988C 10.0423 1.99988 9.99929 2.01222 9.96212 2.03548C 9.92495 2.05875 9.8951 2.092 9.87598 2.13143L 7.8212 6.28244C 7.80647 6.31809 7.78312 6.34953 7.75323 6.37394C 7.72335 6.39836 7.68787 6.415 7.64997 6.42237L 3.20574 7.01315C 3.16199 7.02104 3.12116 7.04049 3.08748 7.06947C 3.0538 7.09844 3.0285 7.1359 3.01421 7.17794C 2.99991 7.21997 2.99714 7.26507 3.00619 7.30854C 3.01523 7.35201 3.03576 7.39227 3.06564 7.42514L 6.21785 10.7288C 6.24473 10.7576 6.26439 10.7924 6.27521 10.8302C 6.28604 10.868 6.28772 10.9079 6.28012 10.9465L 4.9414 15.5561C 4.92669 15.6046 4.9276 15.6564 4.94401 15.7042C 4.96042 15.7521 4.99149 15.7935 5.03282 15.8228C 5.07415 15.852 5.12364 15.8675 5.17429 15.8671C 5.22493 15.8667 5.27416 15.8504 5.315 15.8204L 9.78258 13.7216C 9.81595 13.7032 9.85344 13.6936 9.89155 13.6936C 9.92965 13.6936 9.96714 13.7032 10.0005 13.7216Z"/>
</defs>
</svg>
