<svg width="20" height="20" viewBox="0 0 20 20" version="1.1" xmlns="http://www.w3.org/2000/svg" xmlns:xlink="http://www.w3.org/1999/xlink">
<title>viber</title>
<desc>Created using Figma</desc>
<g id="Canvas" transform="translate(-314 420)">
<g id="viber">
<g id="Group">
<g id="Vector" filter="url(#filter0_i)">
<use xlink:href="#path0_fill" transform="translate(314 -420)" fill="#7D3DAF"/>
</g>
<g id="Group">
<g id="Vector">
<use xlink:href="#path1_fill" transform="translate(318 -416)" fill="#FFFFFF"/>
</g>
<g id="Vector">
<use xlink:href="#path2_fill" transform="translate(320.876 -413.379)" fill="#FFFFFF"/>
</g>
<g id="Vector">
<use xlink:href="#path3_fill" transform="translate(323.741 -413.709)" fill="#FFFFFF"/>
</g>
<g id="Vector">
<use xlink:href="#path4_fill" transform="translate(324.008 -412.958)" fill="#FFFFFF"/>
</g>
<g id="Vector">
<use xlink:href="#path5_fill" transform="translate(324.229 -412.189)" fill="#FFFFFF"/>
</g>
</g>
</g>
</g>
</g>
<defs>
<filter id="filter0_i" filterUnits="userSpaceOnUse" x="314" y="-420" width="20" height="24" color-interpolation-filters="sRGB">
<feFlood flood-opacity="0" result="BackgroundImageFix"/>
<feBlend mode="normal" in="SourceGraphic" in2="BackgroundImageFix" result="shape"/>
<feColorMatrix in="SourceAlpha" type="matrix" values="0 0 0 0 0 0 0 0 0 0 0 0 0 0 0 0 0 0 255 0" result="hardAlpha"/>
<feOffset dx="0" dy="4"/>
<feGaussianBlur stdDeviation="6"/>
<feComposite in2="hardAlpha" operator="arithmetic" k2="-1" k3="1"/>
<feColorMatrix type="matrix" values="0 0 0 0 0 0 0 0 0 0 0 0 0 0 0 0 0 0 0.45 0"/>
<feBlend mode="normal" in2="shape" result="effect1_innerShadow"/>
</filter>
<path id="path0_fill" d="M 0 10C 0 4.47715 4.47715 0 10 0C 15.5228 0 20 4.47715 20 10C 20 15.5228 15.5228 20 10 20C 4.47715 20 0 15.5228 0 10Z"/>
<path id="path1_fill" d="M 11.7316 2.88496L 11.728 2.87111C 11.4385 1.73883 10.1334 0.523822 8.93478 0.271048L 8.92126 0.268355C 6.98264 -0.0894518 5.01697 -0.0894518 3.07874 0.268355L 3.06482 0.271048C 1.86665 0.523822 0.561506 1.73883 0.271607 2.87111L 0.268425 2.88496C -0.0894751 4.46624 -0.0894751 6.06983 0.268425 7.65111L 0.271607 7.66496C 0.549138 8.74892 1.75709 9.9081 2.91092 10.2269L 2.91092 11.4908C 2.91092 11.9483 3.48714 12.173 3.81482 11.8429L 5.13845 10.5117C 5.42553 10.5273 5.71277 10.5359 6 10.5359C 6.97587 10.5359 7.95215 10.4467 8.92126 10.2678L 8.93478 10.2651C 10.1334 10.0123 11.4385 8.79728 11.728 7.66499L 11.7316 7.65114C 12.0895 6.06983 12.0895 4.46624 11.7316 2.88496ZM 10.6841 7.4218C 10.4909 8.1605 9.49987 9.07887 8.71249 9.24854C 7.68169 9.43818 6.64275 9.51924 5.60484 9.49143C 5.5842 9.49089 5.56436 9.49862 5.54996 9.51293C 5.40266 9.65921 4.58351 10.4728 4.58351 10.4728L 3.55554 11.4935C 3.48038 11.5693 3.34836 11.5177 3.34836 11.4131L 3.34836 9.31926C 3.34836 9.28467 3.32283 9.25527 3.28771 9.24862C 3.28751 9.24858 3.28731 9.24854 3.28712 9.2485C 2.49973 9.07883 1.50915 8.16046 1.31548 7.42176C 0.993372 5.99246 0.993372 4.54353 1.31548 3.11423C 1.50915 2.37553 2.49973 1.45716 3.28712 1.28749C 5.08735 0.956229 6.91265 0.956229 8.71249 1.28749C 9.50026 1.45716 10.4909 2.37553 10.6841 3.11423C 11.0066 4.54357 11.0066 5.9925 10.6841 7.4218Z"/>
<path id="path2_fill" d="M 4.83663 5.76779C 4.71558 5.73224 4.60022 5.70835 4.49309 5.66534C 3.38296 5.21973 2.36128 4.64486 1.55198 3.76361C 1.09176 3.26249 0.731557 2.69673 0.427063 2.098C 0.28267 1.81406 0.160984 1.51901 0.036952 1.22588C -0.0761445 0.958559 0.0904381 0.682394 0.265849 0.480983C 0.430443 0.291961 0.642241 0.147299 0.871615 0.0406883C 1.05064 -0.0425307 1.22725 0.005446 1.358 0.152262C 1.64066 0.469672 1.9003 0.803317 2.11055 1.17124C 2.23983 1.39755 2.20436 1.67417 1.97005 1.82818C 1.91311 1.86562 1.86121 1.90956 1.80816 1.95184C 1.76163 1.98889 1.71785 2.02632 1.68596 2.07649C 1.62766 2.16829 1.62488 2.27656 1.66242 2.37636C 1.95136 3.14461 2.43838 3.74199 3.23761 4.06375C 3.3655 4.11522 3.49395 4.17517 3.64129 4.15855C 3.88804 4.13065 3.96793 3.8688 4.14084 3.73199C 4.30984 3.59829 4.52582 3.59652 4.70787 3.70798C 4.88996 3.81948 5.06648 3.93917 5.24194 4.06013C 5.41417 4.17886 5.58564 4.29501 5.74451 4.43036C 5.89725 4.56052 5.94986 4.73127 5.86385 4.9079C 5.70637 5.23139 5.47724 5.50051 5.14669 5.6723C 5.05336 5.72074 4.9419 5.73644 4.83663 5.76779C 4.71558 5.7322 4.9419 5.73644 4.83663 5.76779Z"/>
<path id="path3_fill" d="M 0.261793 0.000584385C 1.71387 0.0399432 2.90652 0.972281 3.1621 2.36119C 3.20564 2.59784 3.22115 2.8398 3.24052 3.07999C 3.24867 3.18103 3.18954 3.27702 3.07684 3.27833C 2.96044 3.27967 2.90807 3.18545 2.90051 3.08446C 2.88556 2.88455 2.87518 2.68375 2.84671 2.4855C 2.69639 1.43897 1.83385 0.573153 0.757167 0.387363C 0.595157 0.359392 0.42933 0.352044 0.265213 0.335384C 0.161461 0.324843 0.0255784 0.318764 0.00259322 0.193993C -0.0166936 0.0893824 0.074571 0.00608665 0.177527 0.000738783C 0.205523 -0.000761698 0.233678 0.000468963 0.261793 0.000584385C 1.71387 0.0399432 0.233678 0.000468963 0.261793 0.000584385Z"/>
<path id="path4_fill" d="M 2.20182 2.0174C 2.19943 2.03494 2.19816 2.07619 2.18754 2.11505C 2.14901 2.25609 1.92798 2.27375 1.87708 2.1314C 1.86201 2.08915 1.85974 2.0411 1.85966 1.99562C 1.85915 1.69807 1.7923 1.40082 1.63721 1.14193C 1.47778 0.875841 1.23421 0.652155 0.948529 0.516804C 0.775783 0.43497 0.588959 0.384107 0.39963 0.35379C 0.316875 0.340555 0.233246 0.332514 0.150093 0.321318C 0.0493246 0.307775 -0.00447972 0.245639 0.00029228 0.14957C 0.00474615 0.0595413 0.0727476 -0.00521009 0.174153 0.000330146C 0.507398 0.0186437 0.829268 0.0883203 1.12553 0.2401C 1.728 0.548775 2.07214 1.03601 2.17259 1.6866C 2.17712 1.71607 2.18444 1.74527 2.18674 1.77486C 2.19243 1.84792 2.19601 1.92106 2.20182 2.0174C 2.19943 2.03494 2.19601 1.92106 2.20182 2.0174Z"/>
<path id="path5_fill" d="M 1.07805 1.21375C 0.956561 1.21587 0.891543 1.15081 0.879017 1.04304C 0.870308 0.967905 0.863428 0.891765 0.844897 0.818664C 0.808391 0.674695 0.729295 0.541268 0.60411 0.453047C 0.545016 0.41138 0.478049 0.381024 0.4079 0.361441C 0.318783 0.336548 0.226246 0.343397 0.137328 0.322313C 0.0407742 0.299421 -0.0126321 0.223782 0.00255874 0.136138C 0.0163578 0.0563819 0.0965671 -0.00586911 0.186639 0.000440607C 0.749616 0.0397609 1.15198 0.321351 1.2094 0.962557C 1.21345 1.0078 1.21823 1.05562 1.20785 1.09891C 1.19007 1.17301 1.13336 1.21014 1.07805 1.21375C 0.956561 1.21587 1.13336 1.21014 1.07805 1.21375Z"/>
</defs>
</svg>
