<svg width="15" height="17" viewBox="0 0 15 17" version="1.1" xmlns="http://www.w3.org/2000/svg" xmlns:xlink="http://www.w3.org/1999/xlink">
<title>Vector</title>
<desc>Created using Figma</desc>
<g id="Canvas" transform="translate(15029 -5090)">
<g id="Vector">
<use xlink:href="#path0_fill" transform="translate(-15029 5090)"/>
<use xlink:href="#path1_fill" transform="translate(-15029 5090)"/>
<use xlink:href="#path2_fill" transform="translate(-15029 5090)"/>
<use xlink:href="#path3_fill" transform="translate(-15029 5090)"/>
<use xlink:href="#path4_fill" transform="translate(-15029 5090)"/>
<use xlink:href="#path5_fill" transform="translate(-15029 5090)"/>
<use xlink:href="#path6_fill" transform="translate(-15029 5090)"/>
<use xlink:href="#path7_fill" transform="translate(-15029 5090)"/>
<use xlink:href="#path8_fill" transform="translate(-15029 5090)"/>
</g>
</g>
<defs>
<path id="path0_fill" d="M 13.5 0L 1.5 0C 0.6729 0 0 0.670272 0 1.49414L 0 15.5059C 0 16.3297 0.6729 17 1.5 17L 13.5 17C 14.3271 17 15 16.3297 15 15.5059L 15 1.49414C 15 0.670272 14.3271 0 13.5 0ZM 14 15.5059C 14 15.7805 13.7757 16.0039 13.5 16.0039L 1.5 16.0039C 1.2243 16.0039 1 15.7805 1 15.5059L 1 1.49414C 1 1.21952 1.2243 0.996094 1.5 0.996094L 13.5 0.996094C 13.7757 0.996094 14 1.21952 14 1.49414L 14 15.5059Z"/>
<path id="path1_fill" d="M 12.5004 1.99219L 2.50039 1.99219C 2.22426 1.99219 2.00039 2.21518 2.00039 2.49023L 2.00039 6.54102C 2.00039 6.81607 2.22426 7.03906 2.50039 7.03906L 12.5004 7.03906C 12.7765 7.03906 13.0004 6.81607 13.0004 6.54102L 13.0004 2.49023C 13.0004 2.21518 12.7765 1.99219 12.5004 1.99219ZM 12.0004 6.04297L 3.00039 6.04297L 3.00039 2.98828L 12.0004 2.98828L 12.0004 6.04297Z"/>
<path id="path2_fill" d="M 10.5 4.01758L 9.5 4.01758C 9.22387 4.01758 9 4.24057 9 4.51562C 9 4.79068 9.22387 5.01367 9.5 5.01367L 10.5 5.01367C 10.7761 5.01367 11 4.79068 11 4.51562C 11 4.24057 10.7761 4.01758 10.5 4.01758Z"/>
<path id="path3_fill" d="M 12.4996 8.03516L 10.4996 8.03516C 10.2235 8.03516 9.99961 8.25815 9.99961 8.5332L 9.99961 10.5254C 9.99961 10.8004 10.2235 11.0234 10.4996 11.0234L 12.4996 11.0234C 12.7757 11.0234 12.9996 10.8004 12.9996 10.5254L 12.9996 8.5332C 12.9996 8.25815 12.7757 8.03516 12.4996 8.03516ZM 11.9996 10.0273L 10.9996 10.0273L 10.9996 9.03125L 11.9996 9.03125L 11.9996 10.0273Z"/>
<path id="path4_fill" d="M 12.4996 12.0195L 10.4996 12.0195C 10.2235 12.0195 9.99961 12.2425 9.99961 12.5176L 9.99961 14.5098C 9.99961 14.7848 10.2235 15.0078 10.4996 15.0078L 12.4996 15.0078C 12.7757 15.0078 12.9996 14.7848 12.9996 14.5098L 12.9996 12.5176C 12.9996 12.2425 12.7757 12.0195 12.4996 12.0195ZM 11.9996 14.0117L 10.9996 14.0117L 10.9996 13.0156L 11.9996 13.0156L 11.9996 14.0117Z"/>
<path id="path5_fill" d="M 8.5 8.03516L 6.5 8.03516C 6.22387 8.03516 6 8.25815 6 8.5332L 6 10.5254C 6 10.8004 6.22387 11.0234 6.5 11.0234L 8.5 11.0234C 8.77613 11.0234 9 10.8004 9 10.5254L 9 8.5332C 9 8.25815 8.77613 8.03516 8.5 8.03516ZM 8 10.0273L 7 10.0273L 7 9.03125L 8 9.03125L 8 10.0273Z"/>
<path id="path6_fill" d="M 4.50039 8.03516L 2.50039 8.03516C 2.22426 8.03516 2.00039 8.25815 2.00039 8.5332L 2.00039 10.5254C 2.00039 10.8004 2.22426 11.0234 2.50039 11.0234L 4.50039 11.0234C 4.77652 11.0234 5.00039 10.8004 5.00039 10.5254L 5.00039 8.5332C 5.00039 8.25815 4.77652 8.03516 4.50039 8.03516ZM 4.00039 10.0273L 3.00039 10.0273L 3.00039 9.03125L 4.00039 9.03125L 4.00039 10.0273Z"/>
<path id="path7_fill" d="M 4.50039 12.0195L 2.50039 12.0195C 2.22426 12.0195 2.00039 12.2425 2.00039 12.5176L 2.00039 14.5098C 2.00039 14.7848 2.22426 15.0078 2.50039 15.0078L 4.50039 15.0078C 4.77652 15.0078 5.00039 14.7848 5.00039 14.5098L 5.00039 12.5176C 5.00039 12.2425 4.77652 12.0195 4.50039 12.0195ZM 4.00039 14.0117L 3.00039 14.0117L 3.00039 13.0156L 4.00039 13.0156L 4.00039 14.0117Z"/>
<path id="path8_fill" d="M 8.5 12.0195L 6.5 12.0195C 6.22387 12.0195 6 12.2425 6 12.5176L 6 14.5098C 6 14.7848 6.22387 15.0078 6.5 15.0078L 8.5 15.0078C 8.77613 15.0078 9 14.7848 9 14.5098L 9 12.5176C 9 12.2425 8.77613 12.0195 8.5 12.0195ZM 8 14.0117L 7 14.0117L 7 13.0156L 8 13.0156L 8 14.0117Z"/>
</defs>
</svg>
