<svg width="23" height="21" viewBox="0 0 23 21" version="1.1" xmlns="http://www.w3.org/2000/svg" xmlns:xlink="http://www.w3.org/1999/xlink">
<title>Group</title>
<desc>Created using Figma</desc>
<g id="Canvas" transform="translate(-628 -1635)">
<g id="Group">
<g id="Group">
<g id="Ellipse 2">
<mask id="mask0_outline_ins">
<use xlink:href="#path0_fill" fill="white" transform="translate(628 1641.14)"/>
</mask>
<g mask="url(#mask0_outline_ins)">
<use xlink:href="#path1_stroke_2x" transform="translate(628 1641.14)" fill="#6F6F6F"/>
</g>
</g>
<g id="Vector 5">
<use xlink:href="#path2_stroke" transform="translate(628.272 1649.11)" fill="#6F6F6F"/>
</g>
</g>
<g id="Group">
<g id="Ellipse 2">
<mask id="mask1_outline_ins">
<use xlink:href="#path0_fill" fill="white" transform="translate(643.707 1637.18)"/>
</mask>
<g mask="url(#mask1_outline_ins)">
<use xlink:href="#path1_stroke_2x" transform="translate(643.707 1637.18)" fill="#6F6F6F"/>
</g>
</g>
<g id="Vector 5">
<use xlink:href="#path2_stroke" transform="translate(643.979 1645.15)" fill="#6F6F6F"/>
</g>
</g>
<g id="Vector 6">
<use xlink:href="#path3_stroke" transform="translate(631.366 1637.17)" fill="#6F6F6F"/>
</g>
<g id="Vector">
<use xlink:href="#path4_stroke" transform="translate(635.854 1636)" fill="#6F6F6F"/>
</g>
<g id="Ellipse 3">
<mask id="mask2_outline_ins">
<use xlink:href="#path5_fill" fill="white" transform="translate(637.27 1636.55)"/>
</mask>
<g mask="url(#mask2_outline_ins)">
<use xlink:href="#path6_stroke_2x" transform="translate(637.27 1636.55)" fill="#6F6F6F"/>
</g>
</g>
</g>
</g>
<defs>
<path id="path0_fill" d="M 6.80572 6.62467C 7.12631 7.29689 7.33435 8.04245 7.16362 8.76737C 6.74057 10.5637 5.3261 11.8839 3.64634 11.8839C 1.96659 11.8839 0.552114 10.5637 0.129059 8.76737C -0.0416641 8.04245 0.166372 7.29689 0.486961 6.62467L 3.64634 0L 6.80572 6.62467Z"/>
<path id="path1_stroke_2x" d="M 0.129059 8.76737L -0.844312 8.9966L 0.129059 8.76737ZM 3.64634 0L 4.54895 -0.430464C 4.38301 -0.778416 4.03184 -1 3.64634 -1C 3.26085 -1 2.90968 -0.778416 2.74373 -0.430464L 3.64634 0ZM 6.19025 8.53813C 5.8481 9.991 4.75953 10.8839 3.64634 10.8839L 3.64634 12.8839C 5.89266 12.8839 7.63304 11.1365 8.137 8.9966L 6.19025 8.53813ZM 3.64634 10.8839C 2.53315 10.8839 1.44459 9.991 1.10243 8.53813L -0.844312 8.9966C -0.340359 11.1365 1.40002 12.8839 3.64634 12.8839L 3.64634 10.8839ZM 1.38957 7.05513L 4.54895 0.430464L 2.74373 -0.430464L -0.415646 6.1942L 1.38957 7.05513ZM 2.74373 0.430464L 5.90311 7.05513L 7.70833 6.1942L 4.54895 -0.430464L 2.74373 0.430464ZM 8.137 8.9966C 8.38447 7.94577 8.06776 6.94787 7.70833 6.1942L 5.90311 7.05513C 6.18486 7.6459 6.28422 8.13912 6.19025 8.53813L 8.137 8.9966ZM 1.10243 8.53813C 1.00846 8.13912 1.10782 7.6459 1.38957 7.05513L -0.415646 6.1942C -0.77508 6.94787 -1.09179 7.94577 -0.844312 8.9966L 1.10243 8.53813Z"/>
<path id="path2_stroke" d="M 0 0.5L 6.65189 0.5L 6.65189 -0.5L 0 -0.5L 0 0.5Z"/>
<path id="path3_stroke" d="M -0.118293 3.4755C -0.386596 3.54083 -0.551137 3.8113 -0.485805 4.0796C -0.420474 4.3479 -0.15001 4.51244 0.118293 4.44711L -0.118293 3.4755ZM 16.3885 0.485333C 16.6566 0.418938 16.82 0.147824 16.7536 -0.120217C 16.6872 -0.388259 16.4161 -0.551727 16.1481 -0.485333L 16.3885 0.485333ZM 9.97734 1.04317C 9.7093 1.10956 9.54583 1.38067 9.61223 1.64872C 9.67862 1.91676 9.94974 2.08022 10.2178 2.01383L 9.97734 1.04317ZM 6.1852 2.96983C 6.4535 2.9045 6.61804 2.63403 6.55271 2.36573C 6.48738 2.09743 6.21691 1.93289 5.94861 1.99822L 6.1852 2.96983ZM 10.2178 2.01383L 16.3885 0.485333L 16.1481 -0.485333L 9.97734 1.04317L 10.2178 2.01383ZM 0.118293 4.44711L 6.1852 2.96983L 5.94861 1.99822L -0.118293 3.4755L 0.118293 4.44711Z"/>
<path id="path4_stroke" d="M 0 18.5C -0.276142 18.5 -0.5 18.7239 -0.5 19C -0.5 19.2761 -0.276142 19.5 0 19.5L 0 18.5ZM 7.29268 19.5C 7.56883 19.5 7.79268 19.2761 7.79268 19C 7.79268 18.7239 7.56883 18.5 7.29268 18.5L 7.29268 19.5ZM 3.16004 18.7456C 3.16004 19.0217 3.38389 19.2456 3.66004 19.2456C 3.93618 19.2456 4.16004 19.0217 4.16004 18.7456L 3.16004 18.7456ZM 4.16004 5.49125C 4.16004 5.2151 3.93618 4.99125 3.66004 4.99125C 3.38389 4.99125 3.16004 5.2151 3.16004 5.49125L 4.16004 5.49125ZM 3.16004 0.826357C 3.16004 1.1025 3.38389 1.32636 3.66004 1.32636C 3.93618 1.32636 4.16004 1.1025 4.16004 0.826357L 3.16004 0.826357ZM 4.16004 0C 4.16004 -0.276142 3.93618 -0.5 3.66004 -0.5C 3.38389 -0.5 3.16004 -0.276142 3.16004 0L 4.16004 0ZM 0 19.5L 7.29268 19.5L 7.29268 18.5L 0 18.5L 0 19.5ZM 4.16004 18.7456L 4.16004 5.49125L 3.16004 5.49125L 3.16004 18.7456L 4.16004 18.7456ZM 4.16004 0.826357L 4.16004 0L 3.16004 0L 3.16004 0.826357L 4.16004 0.826357Z"/>
<path id="path5_fill" d="M 4.4878 2.64087C 4.4878 4.09938 3.48318 5.28174 2.2439 5.28174C 1.00463 5.28174 0 4.09938 0 2.64087C 0 1.18236 1.00463 0 2.2439 0C 3.48318 0 4.4878 1.18236 4.4878 2.64087Z"/>
<path id="path6_stroke_2x" d="M 3.4878 2.64087C 3.4878 3.70603 2.78435 4.28174 2.2439 4.28174L 2.2439 6.28174C 4.182 6.28174 5.4878 4.49274 5.4878 2.64087L 3.4878 2.64087ZM 2.2439 4.28174C 1.70345 4.28174 1 3.70603 1 2.64087L -1 2.64087C -1 4.49274 0.305806 6.28174 2.2439 6.28174L 2.2439 4.28174ZM 1 2.64087C 1 1.57571 1.70345 1 2.2439 1L 2.2439 -1C 0.305806 -1 -1 0.789004 -1 2.64087L 1 2.64087ZM 2.2439 1C 2.78435 1 3.4878 1.57571 3.4878 2.64087L 5.4878 2.64087C 5.4878 0.789004 4.182 -1 2.2439 -1L 2.2439 1Z"/>
</defs>
</svg>
