<svg width="21" height="21" viewBox="0 0 21 21" version="1.1" xmlns="http://www.w3.org/2000/svg" xmlns:xlink="http://www.w3.org/1999/xlink">
<title>Vector</title>
<desc>Created using Figma</desc>
<g id="Canvas" transform="translate(-460 -1635)">
<g id="Vector">
<use xlink:href="#path0_stroke" transform="translate(461 1636)" fill="#6F6F6F"/>
</g>
</g>
<defs>
<path id="path0_stroke" d="M 15.6286 18.9569L 15.8782 18.5237C 15.8703 18.5192 15.8623 18.5148 15.8542 18.5107L 15.6286 18.9569ZM 9.59832 15.9081L 9.35909 16.3471C 9.3636 16.3496 9.36814 16.352 9.37272 16.3543L 9.59832 15.9081ZM 9.29948 15.9081L 9.51028 16.3615C 9.51991 16.357 9.52939 16.3522 9.53871 16.3471L 9.29948 15.9081ZM 3.17317 18.7565L 2.96237 18.3031C 2.9333 18.3166 2.9056 18.3329 2.87965 18.3517L 3.17317 18.7565ZM 2.66087 18.3978L 3.13887 18.5446L 3.14064 18.5386L 2.66087 18.3978ZM 4.49662 12.1418L 4.97639 12.2826C 4.98058 12.2684 4.98412 12.2539 4.98702 12.2394L 4.49662 12.1418ZM 4.41124 11.8465L 4.77489 11.5033L 4.7712 11.4994L 4.41124 11.8465ZM 0.0886723 7.36285L -0.27967 7.70119L -0.271286 7.70988L 0.0886723 7.36285ZM 0.280786 6.80372L 0.215567 6.30799C 0.207968 6.30899 0.200392 6.31017 0.192846 6.31152L 0.280786 6.80372ZM 6.37507 6.00195L 6.44029 6.49768C 6.45007 6.49639 6.45982 6.49481 6.46951 6.49295L 6.37507 6.00195ZM 6.60988 5.81205L 6.16269 5.58839C 6.15761 5.59855 6.15288 5.60888 6.1485 5.61936L 6.60988 5.81205ZM 9.42755 0.178535L 9.87475 0.402207L 9.87655 0.398537L 9.42755 0.178535ZM 9.71572 0L 9.71572 -0.5L 9.71572 0ZM 10.0039 0.178535L 10.4588 -0.029327L 10.4529 -0.0414672L 10.0039 0.178535ZM 12.6935 6.06525L 12.2387 6.27303C 12.3076 6.42376 12.4467 6.53058 12.6101 6.55823L 12.6935 6.06525ZM 18.9265 7.12021L 19.0281 6.63063C 19.0221 6.62939 19.016 6.62825 19.01 6.62722L 18.9265 7.12021ZM 19.0973 7.68989L 19.4458 8.04845L 19.4479 8.04635L 19.0973 7.68989ZM 14.6253 12.0364L 14.2768 11.6778L 14.2749 11.6797L 14.6253 12.0364ZM 14.5293 12.3317L 14.0363 12.4155C 14.0385 12.4282 14.0411 12.4407 14.0442 12.4532L 14.5293 12.3317ZM 16.0982 18.5982L 15.6132 18.7197C 15.6144 18.7246 15.6157 18.7295 15.6171 18.7344L 16.0982 18.5982ZM 15.8542 18.5107L 9.82392 15.4619L 9.37272 16.3543L 15.403 19.4031L 15.8542 18.5107ZM 9.83755 15.469C 9.73523 15.4177 9.56327 15.3739 9.4489 15.3701L 9.4489 16.3701C 9.4178 16.3701 9.38693 16.3623 9.35909 16.3471L 9.83755 15.469ZM 9.4489 15.3701C 9.33453 15.3739 9.16256 15.4177 9.06024 15.469L 9.53871 16.3471C 9.51087 16.3623 9.47999 16.3701 9.4489 16.3701L 9.4489 15.3701ZM 9.08867 15.4547L 2.96237 18.3031L 3.38397 19.2099L 9.51028 16.3615L 9.08867 15.4547ZM 2.87965 18.3517C 2.90824 18.331 2.94198 18.3201 2.97611 18.3198L 2.98432 19.3198C 3.13065 19.3126 3.34463 19.2424 3.46669 19.1613L 2.87965 18.3517ZM 2.97611 18.3198C 3.01023 18.3196 3.04412 18.3299 3.07299 18.3501L 2.49945 19.1693C 2.62282 19.2483 2.83791 19.3151 2.98432 19.3198L 2.97611 18.3198ZM 3.07299 18.3501C 3.10195 18.3704 3.12469 18.3998 3.1369 18.4351L 2.19199 18.7624C 2.24592 18.8993 2.38259 19.08 2.49945 19.1693L 3.07299 18.3501ZM 3.1369 18.4351C 3.14913 18.4704 3.14982 18.5088 3.13883 18.5446L 2.1829 18.251C 2.14559 18.3937 2.14963 18.6212 2.19199 18.7624L 3.1369 18.4351ZM 3.14064 18.5386L 4.97639 12.2826L 4.01685 12.0011L 2.1811 18.257L 3.14064 18.5386ZM 4.98702 12.2394C 5.00557 12.1278 4.99819 11.9547 4.97023 11.8452L 4.00956 12.1228C 4.0022 12.0974 4.00104 12.0704 4.00623 12.0443L 4.98702 12.2394ZM 4.97023 11.8452C 4.9355 11.7377 4.84975 11.5877 4.77487 11.5033L 4.04761 12.1896C 4.03012 12.1711 4.01691 12.1483 4.00956 12.1228L 4.97023 11.8452ZM 4.7712 11.4994L 0.448631 7.01582L -0.271286 7.70988L 4.05128 12.1935L 4.7712 11.4994ZM 0.456907 7.02462C 0.476389 7.04583 0.490275 7.07239 0.496448 7.10174L -0.48216 7.30748C -0.451584 7.43105 -0.362313 7.60441 -0.279562 7.70109L 0.456907 7.02462ZM 0.496448 7.10174C 0.502625 7.13113 0.500705 7.16162 0.491008 7.18984L -0.454724 6.86489C -0.491843 6.98682 -0.503941 7.1819 -0.48216 7.30748L 0.496448 7.10174ZM 0.491008 7.18984C 0.481324 7.21802 0.46443 7.24241 0.442781 7.26084L -0.205533 6.49947C -0.299419 6.58524 -0.409177 6.74612 -0.454724 6.86489L 0.491008 7.18984ZM 0.442781 7.26084C 0.421177 7.27924 0.395553 7.29113 0.368727 7.29593L 0.192846 6.31152C 0.0689195 6.33806 -0.106236 6.42067 -0.205533 6.49947L 0.442781 7.26084ZM 0.346005 7.29945L 6.44029 6.49768L 6.30985 5.50622L 0.215567 6.30799L 0.346005 7.29945ZM 6.46951 6.49295C 6.58065 6.46777 6.74013 6.39372 6.83109 6.32501L 6.20226 5.54746C 6.22539 5.52876 6.25236 5.51639 6.28064 5.51095L 6.46951 6.49295ZM 6.83109 6.32501C 6.91754 6.25019 7.02365 6.10876 7.07125 6.00475L 6.1485 5.61936C 6.16044 5.59077 6.1791 5.56619 6.20226 5.54746L 6.83109 6.32501ZM 7.05706 6.03572L 9.87474 0.4022L 8.98037 -0.04513L 6.16269 5.58839L 7.05706 6.03572ZM 9.87655 0.398537C 9.86112 0.430024 9.83746 0.455735 9.80901 0.473361L 9.28234 -0.376715C 9.17476 -0.304335 9.04003 -0.155716 8.97856 -0.0414672L 9.87655 0.398537ZM 9.80901 0.473361C 9.78061 0.490955 9.74829 0.5 9.71572 0.5L 9.71572 -0.5C 9.58658 -0.495217 9.39469 -0.440656 9.28234 -0.376715L 9.80901 0.473361ZM 9.71572 0.5C 9.68316 0.5 9.65084 0.490956 9.62244 0.473361L 10.1491 -0.376715C 10.0368 -0.440656 9.84487 -0.495217 9.71572 -0.5L 9.71572 0.5ZM 9.62244 0.473361C 9.59399 0.45573 9.57032 0.430016 9.5549 0.398537L 10.4529 -0.0414672C 10.3914 -0.155712 10.2567 -0.304331 10.1491 -0.376715L 9.62244 0.473361ZM 9.54911 0.386321L 12.2387 6.27303L 13.1483 5.85746L 10.4587 -0.0292511L 9.54911 0.386321ZM 12.6101 6.55823L 18.8431 7.6132L 19.01 6.62722L 12.7769 5.57226L 12.6101 6.55823ZM 18.825 7.60979C 18.798 7.60419 18.7724 7.59135 18.7511 7.57197L 19.4247 6.83283C 19.327 6.74989 19.1525 6.66098 19.0281 6.63063L 18.825 7.60979ZM 18.7511 7.57197C 18.7298 7.55254 18.7136 7.52719 18.7049 7.49827L 19.6628 7.21113C 19.6215 7.08935 19.5166 6.92271 19.4247 6.83283L 18.7511 7.57197ZM 18.7049 7.49827C 18.6962 7.46931 18.6956 7.43842 18.7032 7.40908L 19.6714 7.65909C 19.6991 7.53328 19.6953 7.33576 19.6628 7.21113L 18.7049 7.49827ZM 18.7032 7.40908C 18.7108 7.37977 18.726 7.35374 18.7467 7.33344L 19.4479 8.04635C 19.5363 7.95301 19.6348 7.7824 19.6714 7.65909L 18.7032 7.40908ZM 18.7488 7.33134L 14.2768 11.6778L 14.9738 12.3949L 19.4458 8.04844L 18.7488 7.33134ZM 14.2749 11.6797C 14.1961 11.7621 14.1041 11.9105 14.0654 12.0179L 15.0164 12.3271C 15.0081 12.3525 14.994 12.3751 14.9757 12.393L 14.2749 11.6797ZM 14.0654 12.0179C 14.0336 12.1276 14.0208 12.3023 14.0363 12.4155L 15.0222 12.2479C 15.0267 12.2745 15.0247 12.3017 15.0164 12.3271L 14.0654 12.0179ZM 14.0442 12.4532L 15.6132 18.7197L 16.5832 18.4768L 15.0143 12.2103L 14.0442 12.4532ZM 15.6171 18.7344C 15.6068 18.6982 15.6078 18.6597 15.6197 18.6241L 16.5678 18.9421C 16.6063 18.8097 16.6114 18.5961 16.5793 18.4621L 15.6171 18.7344ZM 15.6197 18.6241C 15.6316 18.5886 15.6537 18.5583 15.6821 18.5366L 16.2891 19.3313C 16.3949 19.2436 16.5189 19.0706 16.5678 18.9421L 15.6197 18.6241ZM 15.6821 18.5366C 15.7105 18.5149 15.7441 18.5026 15.7785 18.5004L 15.8428 19.4983C 15.979 19.4842 16.1771 19.4101 16.2891 19.3313L 15.6821 18.5366ZM 15.7785 18.5004C 15.813 18.4981 15.8476 18.5061 15.8782 18.5237L 15.3789 19.3901C 15.5001 19.4538 15.7059 19.5017 15.8428 19.4983L 15.7785 18.5004Z"/>
</defs>
</svg>
