<svg width="22" height="21" viewBox="0 0 22 21" version="1.1" xmlns="http://www.w3.org/2000/svg" xmlns:xlink="http://www.w3.org/1999/xlink">
<title>Vector</title>
<desc>Created using Figma</desc>
<g id="Canvas" transform="translate(22977 -129)">
<rect x="-22977" y="129" width="22" height="21" fill="#E5E5E5"/>
<clipPath id="clip-0" clip-rule="evenodd">
<path d="M -23692 -574L -22252 -574L -22252 2189L -23692 2189L -23692 -574Z" fill="#FFFFFF"/>
</clipPath>
<g id="&#208;&#152;&#208;&#183;&#208;&#177;&#209;&#128;&#208;&#176;&#208;&#189;&#208;&#189;&#208;&#190;&#208;&#181;" clip-path="url(#clip-0)">
<path d="M -23692 -574L -22252 -574L -22252 2189L -23692 2189L -23692 -574Z" fill="#FFFFFF"/>
<g id="verh">
<g id="item card">
<g id="Rectangle 39">
<use xlink:href="#path0_fill" transform="translate(-23077 -153)" fill="#FAFAFA"/>
<mask id="mask0_outline_ins">
<use xlink:href="#path0_fill" fill="white" transform="translate(-23077 -153)"/>
</mask>
<g mask="url(#mask0_outline_ins)">
<use xlink:href="#path1_stroke_2x" transform="translate(-23077 -153)" fill="#000000" fill-opacity="0.05"/>
</g>
</g>
<g id="&#209;&#134;&#208;&#181;&#208;&#189;&#208;&#176;">
<g id="e-biz">
<g id="cta">
<g id="Group">
<g id="Vector">
<use xlink:href="#path2_fill" transform="translate(-22976 130)" fill="#FFC800"/>
<use xlink:href="#path3_stroke" transform="translate(-22976 130)" fill="#FFC800"/>
</g>
</g>
</g>
</g>
</g>
</g>
</g>
</g>
</g>
<defs>
<path id="path0_fill" d="M 0 8C 0 3.58172 3.58172 0 8 0L 322 0C 326.418 0 330 3.58172 330 8L 330 356C 330 360.418 326.418 364 322 364L 8 364C 3.58172 364 0 360.418 0 356L 0 8Z"/>
<path id="path1_stroke_2x" d="M 8 1L 322 1L 322 -1L 8 -1L 8 1ZM 329 8L 329 356L 331 356L 331 8L 329 8ZM 322 363L 8 363L 8 365L 322 365L 322 363ZM 1 356L 1 8L -1 8L -1 356L 1 356ZM 8 -1C 3.02944 -1 -1 3.02944 -1 8L 1 8C 1 4.13401 4.13401 1 8 1L 8 -1ZM 322 1C 325.866 1 329 4.13401 329 8L 331 8C 331 3.02944 326.971 -1 322 -1L 322 1ZM 329 356C 329 359.866 325.866 363 322 363L 322 365C 326.971 365 331 360.97 331 356L 329 356ZM 8 363C 4.13401 363 1 359.866 1 356L -1 356C -1 360.97 3.02944 365 8 365L 8 363Z"/>
<path id="path2_fill" d="M 16.2815 18.9569L 9.99934 15.9081C 9.95166 15.8831 9.89811 15.8701 9.84367 15.8701C 9.78923 15.8701 9.73568 15.8831 9.68801 15.9081L 3.30574 18.7565C 3.24741 18.7971 3.17708 18.8193 3.10473 18.8198C 3.03238 18.8204 2.96167 18.7993 2.90263 18.7597C 2.84359 18.72 2.7992 18.6637 2.77576 18.5987C 2.75232 18.5338 2.75102 18.4635 2.77204 18.3978L 4.68449 12.1418C 4.69535 12.0894 4.69294 12.0353 4.67748 11.984C 4.66202 11.9326 4.63394 11.8855 4.59554 11.8465L 0.092377 7.36285C 0.049689 7.31824 0.0203625 7.26361 0.00744196 7.20461C -0.00547854 7.14562 -0.00152229 7.08442 0.0188999 7.02736C 0.0393221 6.97031 0.0754658 6.91948 0.12358 6.88016C 0.171694 6.84083 0.230025 6.81444 0.292517 6.80372L 6.64142 6.00195C 6.69556 5.99195 6.74625 5.96937 6.78894 5.93623C 6.83163 5.90309 6.86499 5.86043 6.88604 5.81205L 9.82143 0.178535C 9.84875 0.125026 9.8914 0.0798984 9.94449 0.0483227C 9.99759 0.016747 10.059 9.36998e-16 10.1216 0C 10.1843 9.36998e-16 10.2457 0.016747 10.2988 0.0483227C 10.3519 0.0798984 10.3945 0.125026 10.4219 0.178535L 13.2238 6.06525L 19.7173 7.12021C 19.7801 7.13272 19.8382 7.16112 19.8854 7.2024C 19.9326 7.24368 19.9671 7.29631 19.9853 7.3547C 20.0036 7.41309 20.0048 7.47508 19.9889 7.53409C 19.9731 7.5931 19.9407 7.64693 19.8952 7.68989L 15.2363 12.0364C 15.196 12.0744 15.1658 12.1211 15.1484 12.1725C 15.131 12.2239 15.1269 12.2785 15.1363 12.3317L 16.7708 18.5982C 16.7887 18.6589 16.787 18.7233 16.7662 18.7831C 16.7453 18.8429 16.706 18.8954 16.6535 18.9339C 16.6009 18.9725 16.5375 18.9952 16.4712 18.9993C 16.4049 19.0034 16.3389 18.9887 16.2815 18.9569Z"/>
<path id="path3_stroke" d="M 16.2815 18.9569L 16.5235 18.5194C 16.5157 18.5151 16.5078 18.511 16.4998 18.5071L 16.2815 18.9569ZM 9.99934 15.9081L 9.7676 16.3511C 9.77205 16.3535 9.77652 16.3557 9.78103 16.3579L 9.99934 15.9081ZM 9.68801 15.9081L 9.89178 16.3647C 9.90124 16.3604 9.91056 16.3559 9.91974 16.3511L 9.68801 15.9081ZM 3.30574 18.7565L 3.10197 18.2999C 3.07329 18.3127 3.04588 18.3282 3.0201 18.3461L 3.30574 18.7565ZM 2.77204 18.3978L 3.2483 18.5502L 3.25019 18.544L 2.77204 18.3978ZM 4.68449 12.1418L 5.16265 12.288C 5.16715 12.2733 5.17097 12.2584 5.1741 12.2433L 4.68449 12.1418ZM 4.59554 11.8465L 4.9521 11.4959L 4.94832 11.4921L 4.59554 11.8465ZM 0.092377 7.36285L -0.26898 7.70864L -0.260406 7.71718L 0.092377 7.36285ZM 0.292517 6.80372L 0.229872 6.30766C 0.222559 6.30858 0.215266 6.30967 0.208001 6.31092L 0.292517 6.80372ZM 6.64142 6.00195L 6.70407 6.49801C 6.71348 6.49682 6.72286 6.49536 6.7322 6.49364L 6.64142 6.00195ZM 6.88604 5.81205L 6.44262 5.58101C 6.43723 5.59135 6.43221 5.60187 6.42756 5.61257L 6.88604 5.81205ZM 9.82143 0.178535L 10.2649 0.409589L 10.2668 0.405859L 9.82143 0.178535ZM 10.1216 0L 10.1216 -0.5L 10.1216 0ZM 10.4219 0.178535L 10.8735 -0.0364378L 10.8672 -0.0487894L 10.4219 0.178535ZM 13.2238 6.06525L 12.7724 6.28014C 12.8429 6.42832 12.9817 6.53246 13.1436 6.55877L 13.2238 6.06525ZM 19.7173 7.12021L 19.8149 6.62984C 19.8091 6.62868 19.8033 6.62763 19.7975 6.62668L 19.7173 7.12021ZM 19.8952 7.68989L 20.2363 8.0555L 20.2384 8.05344L 19.8952 7.68989ZM 15.2363 12.0364L 14.8953 11.6708L 14.8933 11.6726L 15.2363 12.0364ZM 15.1363 12.3317L 14.6439 12.4189C 14.6463 12.432 14.6491 12.4451 14.6525 12.4579L 15.1363 12.3317ZM 16.7708 18.5982L 16.2869 18.7244C 16.2883 18.7295 16.2897 18.7346 16.2912 18.7397L 16.7708 18.5982ZM 16.4998 18.5071L 10.2176 15.4583L 9.78103 16.3579L 16.0632 19.4068L 16.4998 18.5071ZM 10.2311 15.465C 10.1281 15.4153 9.95785 15.3736 9.84367 15.3701L 9.84367 16.3701C 9.81839 16.3701 9.79232 16.3641 9.7676 16.3511L 10.2311 15.465ZM 9.84367 15.3701C 9.7295 15.3736 9.55921 15.4153 9.45627 15.465L 9.91974 16.3511C 9.89502 16.3641 9.86895 16.3701 9.84367 16.3701L 9.84367 15.3701ZM 9.48423 15.4515L 3.10197 18.2999L 3.50952 19.2131L 9.89178 16.3647L 9.48423 15.4515ZM 3.0201 18.3461C 3.04605 18.328 3.07428 18.32 3.10078 18.3198L 3.10867 19.3198C 3.25504 19.3131 3.46788 19.2459 3.59138 19.1669L 3.0201 18.3461ZM 3.10078 18.3198C 3.12729 18.3196 3.15549 18.3272 3.18153 18.3447L 2.62373 19.1747C 2.74847 19.2516 2.96225 19.3155 3.10867 19.3198L 3.10078 18.3198ZM 3.18153 18.3447C 3.20788 18.3624 3.23226 18.3907 3.24607 18.429L 2.30545 18.7685C 2.36209 18.9064 2.50369 19.0867 2.62373 19.1747L 3.18153 18.3447ZM 3.24607 18.429C 3.26004 18.4677 3.2609 18.5106 3.24826 18.5502L 2.29582 18.2454C 2.25631 18.391 2.26062 18.6245 2.30545 18.7685L 3.24607 18.429ZM 3.25019 18.544L 5.16265 12.288L 4.20634 11.9957L 2.29388 18.2516L 3.25019 18.544ZM 5.1741 12.2433C 5.19375 12.1294 5.18587 11.9515 5.15624 11.8398L 4.19872 12.1282C 4.19024 12.1 4.18882 12.0697 4.19489 12.0404L 5.1741 12.2433ZM 5.15624 11.8398C 5.1196 11.7311 5.02981 11.5801 4.95208 11.4959L 4.23901 12.197C 4.22177 12.1795 4.20716 12.1562 4.19872 12.1282L 5.15624 11.8398ZM 4.94832 11.4921L 0.44516 7.00853L -0.260406 7.71718L 4.24276 12.2008L 4.94832 11.4921ZM 0.453628 7.01717C 0.472959 7.03737 0.488672 7.0648 0.495865 7.09764L -0.480981 7.31158C -0.448615 7.43698 -0.354915 7.612 -0.268874 7.70854L 0.453628 7.01717ZM 0.495865 7.09764C 0.503093 7.13064 0.500738 7.1649 0.489651 7.19587L -0.451851 6.85886C -0.491139 6.98305 -0.504053 7.18335 -0.480981 7.31158L 0.495865 7.09764ZM 0.489651 7.19587C 0.478644 7.22662 0.460363 7.25065 0.440007 7.26729L -0.192848 6.49302C -0.289748 6.57799 -0.403959 6.73901 -0.451851 6.85886L 0.489651 7.19587ZM 0.440007 7.26729C 0.419835 7.28378 0.397865 7.29295 0.377034 7.29653L 0.208001 6.31092C 0.0835207 6.33638 -0.0918052 6.4159 -0.192848 6.49302L 0.440007 7.26729ZM 0.355163 7.29978L 6.70407 6.49801L 6.57878 5.50589L 0.229872 6.30766L 0.355163 7.29978ZM 6.7322 6.49364C 6.84371 6.4695 7.00314 6.39833 7.09554 6.33119L 6.48233 5.54127C 6.50404 5.52442 6.52768 5.5145 6.55065 5.51026L 6.7322 6.49364ZM 7.09554 6.33119C 7.18456 6.25726 7.29461 6.11621 7.34452 6.01154L 6.42756 5.61257C 6.44079 5.58215 6.4605 5.55823 6.48233 5.54127L 7.09554 6.33119ZM 7.32945 6.0431L 10.2648 0.409581L 9.37802 -0.0525111L 6.44262 5.58101L 7.32945 6.0431ZM 10.2668 0.405859C 10.2499 0.438847 10.2256 0.462864 10.2001 0.478071L 9.68892 -0.381426C 9.57892 -0.310432 9.44024 -0.163277 9.3761 -0.0487894L 10.2668 0.405859ZM 10.2001 0.478071C 10.1747 0.493168 10.1476 0.5 10.1216 0.5L 10.1216 -0.5C 9.99261 -0.495575 9.80223 -0.44351 9.68892 -0.381426L 10.2001 0.478071ZM 10.1216 0.5C 10.0957 0.5 10.0686 0.493169 10.0432 0.478071L 10.5544 -0.381426C 10.4411 -0.44351 10.2507 -0.495575 10.1216 -0.5L 10.1216 0.5ZM 10.0432 0.478071C 10.0176 0.462857 9.99335 0.438836 9.97652 0.405859L 10.8672 -0.0487894C 10.8031 -0.163271 10.6644 -0.310427 10.5544 -0.381426L 10.0432 0.478071ZM 9.97039 0.393425L 12.7724 6.28014L 13.6753 5.85036L 10.8733 -0.0363552L 9.97039 0.393425ZM 13.1436 6.55877L 19.6371 7.61374L 19.7975 6.62668L 13.304 5.57172L 13.1436 6.55877ZM 19.6196 7.61058C 19.5986 7.60639 19.5763 7.59637 19.5562 7.57874L 20.2146 6.82606C 20.115 6.74474 19.9401 6.659 19.8149 6.62984L 19.6196 7.61058ZM 19.5562 7.57874C 19.5358 7.56094 19.518 7.53559 19.5081 7.50374L 20.4626 7.20565C 20.4191 7.08253 20.3096 6.91531 20.2146 6.82606L 19.5562 7.57874ZM 19.5081 7.50374C 19.4981 7.47167 19.4973 7.43692 19.5061 7.40421L 20.4718 7.66396C 20.5011 7.53559 20.4971 7.33274 20.4626 7.20565L 19.5081 7.50374ZM 19.5061 7.40421C 19.5149 7.37168 19.5319 7.34526 19.5519 7.32634L 20.2384 8.05344C 20.3301 7.96053 20.4332 7.78886 20.4718 7.66396L 19.5061 7.40421ZM 19.5541 7.3243L 14.8953 11.6708L 15.5774 12.4019L 20.2363 8.05549L 19.5541 7.3243ZM 14.8933 11.6726C 14.8117 11.7546 14.7156 11.9036 14.6749 12.0121L 15.622 12.3329C 15.6126 12.3607 15.5971 12.3834 15.5794 12.4001L 14.8933 11.6726ZM 14.6749 12.0121C 14.6411 12.1239 14.6275 12.3033 14.6439 12.4189L 15.6286 12.2445C 15.6339 12.2744 15.6315 12.305 15.622 12.3329L 14.6749 12.0121ZM 14.6525 12.4579L 16.2869 18.7244L 17.2546 18.472L 15.6201 12.2056L 14.6525 12.4579ZM 16.2912 18.7397C 16.2794 18.6998 16.2806 18.657 16.2941 18.6182L 17.2382 18.948C 17.2789 18.813 17.2844 18.5936 17.2503 18.4568L 16.2912 18.7397ZM 16.2941 18.6182C 16.3076 18.5797 16.3313 18.5502 16.3578 18.5307L 16.9491 19.3372C 17.058 19.2505 17.1867 19.0777 17.2382 18.948L 16.2941 18.6182ZM 16.3578 18.5307C 16.3841 18.5115 16.4129 18.502 16.4404 18.5003L 16.502 19.4984C 16.6383 19.485 16.8356 19.414 16.9491 19.3372L 16.3578 18.5307ZM 16.4404 18.5003C 16.4678 18.4986 16.4966 18.5045 16.5235 18.5194L 16.0395 19.3945C 16.1615 19.4561 16.3654 19.5019 16.502 19.4984L 16.4404 18.5003Z"/>
</defs>
</svg>
