<svg width="24" height="25" viewBox="0 0 24 25" version="1.1" xmlns="http://www.w3.org/2000/svg" xmlns:xlink="http://www.w3.org/1999/xlink">
<title>002-google-plus</title>
<desc>Created using Figma</desc>
<g id="Canvas" transform="translate(440 455)">
<g id="002-google-plus">
<g id="Group">
<g id="Vector">
<use xlink:href="#path0_fill" transform="translate(-440 -454.008)" fill="#DD4B39"/>
</g>
<g id="Group">
<g id="Vector">
<use xlink:href="#path1_fill" transform="translate(-424.625 -444.045)" fill="#FFFFFF"/>
</g>
<g id="Vector">
<use xlink:href="#path2_fill" transform="translate(-435.416 -446.714)" fill="#FFFFFF"/>
</g>
</g>
</g>
</g>
</g>
<defs>
<path id="path0_fill" d="M 12 0C 18.6 0 24 5.39324 24 11.985C 24 18.5767 18.6 23.9699 12 23.9699C 5.4 23.9699 0 18.5766 0 11.985C 0 5.39332 5.4 0 12 0Z"/>
<path id="path1_fill" d="M 2.70004 1.95858e-07L 2.70004 1.34833L 4.04998 1.34833L 4.04998 2.69666L 2.70004 2.69666L 2.70004 4.04499L 1.35002 4.04499L 1.35002 2.69666L 5.83283e-07 2.69666L 5.83283e-07 1.34833L 1.35002 1.34833L 1.35002 1.95858e-07L 2.70004 1.95858e-07Z"/>
<path id="path2_fill" d="M 1.34077 8.06226C -0.459228 6.26451 -0.459228 3.11844 1.41574 1.32077C 2.76576 -0.0275568 4.7157 -0.32714 6.44073 0.346984L 7.1157 0.721525L 7.86572 1.2459L 6.66572 2.44439L 6.21574 2.14481C 5.16576 1.47069 3.66572 1.62044 2.69079 2.59423C 1.56576 3.71785 1.49079 5.7403 2.69079 6.9388C 3.81582 8.1373 5.84081 8.1373 6.89079 6.9388C 7.19075 6.63922 7.49079 6.18972 7.56576 5.7403L 7.56576 5.59047L 4.8658 5.59047L 4.8658 4.09239L 9.14077 4.09239L 9.21574 4.46693L 9.21574 5.5156C 9.14077 6.48939 8.76576 7.46317 8.09071 8.1373C 6.29079 9.86 3.14077 9.86 1.34077 8.06226Z"/>
</defs>
</svg>
