<svg width="26" height="26" viewBox="0 0 26 26" version="1.1" xmlns="http://www.w3.org/2000/svg" xmlns:xlink="http://www.w3.org/1999/xlink">
<title>32px_Info Circle</title>
<desc>Created using Figma</desc>
<g id="Canvas" transform="translate(359 268)">
<g id="32px_Info Circle">
<g id="Info Circle">
<g id="Vector">
<use xlink:href="#path0_stroke" transform="translate(-358 -267)" fill="#FFFFFF"/>
</g>
<g id="Vector">
<use xlink:href="#path1_stroke" transform="translate(-348.4 -251)" fill="#FFFFFF"/>
</g>
<g id="Vector">
<use xlink:href="#path2_stroke" transform="translate(-347.6 -256.2)" fill="#FFFFFF"/>
</g>
<g id="Vector">
<use xlink:href="#path3_fill" transform="translate(-346.8 -259.96)" fill="#FFFFFF"/>
<use xlink:href="#path4_stroke" transform="translate(-346.8 -259.96)" fill="#FFFFFF"/>
</g>
</g>
</g>
</g>
<defs>
<path id="path0_stroke" d="M 23.5 12C 23.5 18.3513 18.3513 23.5 12 23.5L 12 24.5C 18.9036 24.5 24.5 18.9036 24.5 12L 23.5 12ZM 12 23.5C 5.64873 23.5 0.5 18.3513 0.5 12L -0.5 12C -0.5 18.9036 5.09644 24.5 12 24.5L 12 23.5ZM 0.5 12C 0.5 5.64873 5.64873 0.5 12 0.5L 12 -0.5C 5.09644 -0.5 -0.5 5.09644 -0.5 12L 0.5 12ZM 12 0.5C 18.3513 0.5 23.5 5.64873 23.5 12L 24.5 12C 24.5 5.09644 18.9036 -0.5 12 -0.5L 12 0.5Z"/>
<path id="path1_stroke" d="M 0 -0.5C -0.276142 -0.5 -0.5 -0.276142 -0.5 0C -0.5 0.276142 -0.276142 0.5 0 0.5L 0 -0.5ZM 4.8 0.5C 5.07614 0.5 5.3 0.276142 5.3 0C 5.3 -0.276142 5.07614 -0.5 4.8 -0.5L 4.8 0.5ZM 0 0.5L 4.8 0.5L 4.8 -0.5L 0 -0.5L 0 0.5Z"/>
<path id="path2_stroke" d="M 0 -0.5C -0.276142 -0.5 -0.5 -0.276142 -0.5 0C -0.5 0.276142 -0.276142 0.5 0 0.5L 0 -0.5ZM 1.6 0L 2.1 0C 2.1 -0.276142 1.87614 -0.5 1.6 -0.5L 1.6 0ZM 1.1 5.2C 1.1 5.47614 1.32386 5.7 1.6 5.7C 1.87614 5.7 2.1 5.47614 2.1 5.2L 1.1 5.2ZM 0 0.5L 1.6 0.5L 1.6 -0.5L 0 -0.5L 0 0.5ZM 1.1 0L 1.1 5.2L 2.1 5.2L 2.1 0L 1.1 0Z"/>
<path id="path3_fill" d="M 0.4 0.8C 0.620914 0.8 0.8 0.620914 0.8 0.4C 0.8 0.179086 0.620914 0 0.4 0C 0.179086 0 0 0.179086 0 0.4C 0 0.620914 0.179086 0.8 0.4 0.8Z"/>
<path id="path4_stroke" d="M 0.3 0.4C 0.3 0.344772 0.344772 0.3 0.4 0.3L 0.4 1.3C 0.897056 1.3 1.3 0.897056 1.3 0.4L 0.3 0.4ZM 0.4 0.3C 0.455228 0.3 0.5 0.344772 0.5 0.4L -0.5 0.4C -0.5 0.897056 -0.0970563 1.3 0.4 1.3L 0.4 0.3ZM 0.5 0.4C 0.5 0.455228 0.455229 0.5 0.4 0.5L 0.4 -0.5C -0.0970565 -0.5 -0.5 -0.0970559 -0.5 0.4L 0.5 0.4ZM 0.4 0.5C 0.344771 0.5 0.3 0.455228 0.3 0.4L 1.3 0.4C 1.3 -0.0970559 0.897057 -0.5 0.4 -0.5L 0.4 0.5Z"/>
</defs>
</svg>
