<svg width="26" height="26" viewBox="0 0 26 26" version="1.1" xmlns="http://www.w3.org/2000/svg" xmlns:xlink="http://www.w3.org/1999/xlink">
<title>twitter</title>
<desc>Created using Figma</desc>
<g id="Canvas" transform="translate(-564 -8610)">
<g id="twitter">
<g id="bg">
<mask id="mask0_outline_ins">
<use xlink:href="#path0_fill" fill="white" transform="translate(564 8610)"/>
</mask>
<g mask="url(#mask0_outline_ins)">
<use xlink:href="#path1_stroke_2x" transform="translate(564 8610)" fill="#FFFFFF"/>
</g>
</g>
<g id="Vector">
<use xlink:href="#path2_fill" transform="translate(570.5 8616.52)" fill="#FFFFFF"/>
<use xlink:href="#path3_fill" transform="translate(570.5 8616.52)" fill="#FFFFFF"/>
<use xlink:href="#path4_fill" transform="translate(570.5 8616.52)" fill="#FFFFFF"/>
</g>
</g>
</g>
<defs>
<path id="path0_fill" d="M 0 12.9997C 0 5.82019 5.82019 0 12.9997 0C 20.1793 0 25.9995 5.82019 25.9995 12.9997L 25.9995 13.0003C 25.9995 20.1798 20.1793 26 12.9997 26C 5.82019 26 0 20.1798 0 13.0003L 0 12.9997Z"/>
<path id="path1_stroke_2x" d="M 24.9995 12.9997L 24.9995 13.0003L 26.9995 13.0003L 26.9995 12.9997L 24.9995 12.9997ZM 1 13.0003L 1 12.9997L -1 12.9997L -1 13.0003L 1 13.0003ZM 12.9997 -1C 5.2679 -1 -1 5.2679 -1 12.9997L 1 12.9997C 1 6.37247 6.37247 1 12.9997 1L 12.9997 -1ZM 12.9997 1C 19.627 1 24.9995 6.37247 24.9995 12.9997L 26.9995 12.9997C 26.9995 5.2679 20.7316 -1 12.9997 -1L 12.9997 1ZM 24.9995 13.0003C 24.9995 19.6275 19.627 25 12.9997 25L 12.9997 27C 20.7316 27 26.9995 20.7321 26.9995 13.0003L 24.9995 13.0003ZM 12.9997 25C 6.37247 25 1 19.6275 1 13.0003L -1 13.0003C -1 20.7321 5.2679 27 12.9997 27L 12.9997 25Z"/>
<path id="path2_fill" fill-rule="evenodd" d="M 9.48725 0L 3.5125 0C 1.57571 0 0 1.57433 0 3.50942L 0 9.47894C 0 11.414 1.57571 12.9884 3.5125 12.9884L 9.48725 12.9884C 11.424 12.9884 12.9997 11.414 12.9997 9.47894L 12.9997 3.50942C 12.9997 1.57433 11.424 0 9.48725 0ZM 9.48725 11.939C 10.845 11.939 11.9495 10.8354 11.9495 9.47894L 11.9495 3.50942C 11.9495 2.1529 10.8449 1.04932 9.48725 1.04932L 3.5125 1.04932C 2.15479 1.04932 1.05024 2.15292 1.05024 3.50942L 1.05024 9.47894C 1.05024 10.8355 2.15481 11.939 3.5125 11.939L 9.48725 11.939Z"/>
<path id="path3_fill" fill-rule="evenodd" d="M 9.40923 6.04113C 9.31681 5.41843 9.03247 4.85404 8.58695 4.40891C 8.14143 3.96381 7.57654 3.67969 6.95332 3.58737C 6.66956 3.54534 6.38186 3.54534 6.09813 3.58737C 5.32789 3.7015 4.64827 4.10846 4.18442 4.73329C 3.72057 5.35813 3.52799 6.12607 3.64222 6.89557C 3.75645 7.66511 4.16376 8.34413 4.78914 8.8076C 5.29684 9.18383 5.89884 9.3814 6.51955 9.3814C 6.66344 9.3814 6.80837 9.3708 6.95329 9.34931C 7.72353 9.23518 8.40315 8.82823 8.867 8.20339C 9.33088 7.57858 9.52346 6.81067 9.40923 6.04113ZM 5.4148 7.96481C 5.81488 8.26128 6.30656 8.38444 6.79925 8.31133C 7.81638 8.16065 8.52113 7.21128 8.37032 6.19509C 8.24895 5.37743 7.61758 4.74664 6.79923 4.6254C 6.70848 4.61193 6.61708 4.60521 6.5257 4.60521C 6.43432 4.60521 6.34294 4.61193 6.2522 4.62538C 5.75947 4.69839 5.32472 4.95871 5.02796 5.35843C 4.73122 5.75815 4.60806 6.2494 4.68113 6.74167C 4.75418 7.23393 5.01473 7.66833 5.4148 7.96481Z"/>
<path id="path4_fill" d="M 10.1573 2.83996C 10.0595 2.74227 9.92414 2.68628 9.78597 2.68628C 9.64779 2.68628 9.51244 2.74225 9.41464 2.83996C 9.31686 2.93768 9.26082 3.07269 9.26082 3.21097C 9.26082 3.34925 9.31686 3.48426 9.41464 3.58197C 9.51244 3.67967 9.64779 3.73565 9.78597 3.73565C 9.92414 3.73565 10.0595 3.67969 10.1573 3.58197C 10.2551 3.48426 10.3111 3.34902 10.3111 3.21097C 10.3111 3.07289 10.2551 2.93766 10.1573 2.83996Z"/>
</defs>
</svg>
