<svg width="22" height="24" viewBox="0 0 22 24" version="1.1" xmlns="http://www.w3.org/2000/svg" xmlns:xlink="http://www.w3.org/1999/xlink">
<title>Vector</title>
<desc>Created using Figma</desc>
<g id="Canvas" transform="translate(-289 267)">
<g id="Vector">
<use xlink:href="#path0_fill" transform="translate(289 -267)" fill="#FFFFFF"/>
<use xlink:href="#path1_fill" transform="translate(289 -267)" fill="#FFFFFF"/>
<use xlink:href="#path2_fill" transform="translate(289 -267)" fill="#FFFFFF"/>
</g>
</g>
<defs>
<path id="path0_fill" d="M 20.9 13.125L 20.1667 13.125L 5.50385 13.125C 5.50312 13.125 5.50238 13.125 5.50165 13.125L 1.83333 13.125L 1.1 13.125C 0.493442 13.125 0 13.6297 0 14.25C 0 14.4571 0.164175 14.625 0.366667 14.625C 0.569158 14.625 0.733333 14.4571 0.733333 14.25C 0.733333 14.0432 0.897829 13.875 1.1 13.875L 1.40048 13.875L 0.549221 19.0989C 0.420429 19.8894 0.571496 20.7032 0.974646 21.3903L 1.46667 22.2288L 1.46667 23.5781C 1.46667 23.8107 1.65174 24 1.87917 24L 20.1208 24C 20.3483 24 20.5333 23.8107 20.5333 23.5781L 20.5333 22.2288L 21.0254 21.3903C 21.4285 20.7032 21.5796 19.8894 21.4508 19.0989L 20.5995 13.875L 20.9 13.875C 21.1022 13.875 21.2667 14.0432 21.2667 14.25C 21.2667 14.4571 21.4308 14.625 21.6333 14.625C 21.8358 14.625 22 14.4571 22 14.25C 22 13.6297 21.5066 13.125 20.9 13.125ZM 18.5632 21.0044L 18.1258 21.75L 17.0416 21.75L 17.3007 21.0876C 17.5016 20.5738 17.5763 20.0114 17.5165 19.4613L 16.9097 13.875L 18.0227 13.875L 18.8941 19.2222C 18.9942 19.837 18.8767 20.47 18.5632 21.0044ZM 15.1526 21.75L 15.3972 20.8739C 15.5057 20.4852 15.5449 20.0837 15.5136 19.6806L 15.0635 13.875L 16.1718 13.875L 16.7877 19.5442C 16.8342 19.972 16.7761 20.4094 16.6198 20.809L 16.2518 21.75L 15.1526 21.75ZM 13.2212 21.75L 13.2967 20.3788C 13.3011 20.2986 13.3027 20.2171 13.3014 20.1365L 13.2058 13.875L 14.3279 13.875L 14.7826 19.7399C 14.8069 20.0534 14.7764 20.3657 14.692 20.668L 14.39 21.75L 13.2212 21.75ZM 11.3667 21.75L 11.3667 13.875L 12.4723 13.875L 12.5682 20.1482C 12.5691 20.2109 12.5679 20.2743 12.5645 20.3367L 12.4867 21.75L 11.3667 21.75ZM 9.5111 21.75L 9.4253 20.3463C 9.42109 20.2768 9.41953 20.2064 9.42072 20.137L 9.52705 13.875L 10.6333 13.875L 10.6333 21.75L 9.5111 21.75ZM 3.87425 21.75L 3.43681 21.0044C 3.12327 20.47 3.00575 19.837 3.1059 19.2222L 3.97728 13.875L 5.09034 13.875L 4.48342 19.4613C 4.42365 20.0114 4.49831 20.5738 4.69929 21.0876L 4.95834 21.75L 3.87425 21.75ZM 5.74823 21.75L 5.38019 20.809C 5.22385 20.4094 5.16578 19.972 5.21226 19.5442L 5.82821 13.875L 6.93623 13.875L 6.48322 19.6767C 6.45155 20.0825 6.49124 20.4867 6.60124 20.878L 6.8464 21.75L 5.74823 21.75ZM 7.60943 21.75L 7.30602 20.6707C 7.22045 20.3664 7.18955 20.0521 7.21421 19.7364L 7.6719 13.875L 8.79358 13.875L 8.68752 20.1239C 8.68597 20.2131 8.68798 20.3036 8.69344 20.3931L 8.7764 21.75L 7.60943 21.75ZM 1.27256 19.2222L 2.14395 13.875L 3.23386 13.875L 2.38255 19.0989C 2.25376 19.8894 2.40483 20.7032 2.80798 21.3903L 3.019 21.75L 2.04091 21.75L 1.60348 21.0044C 1.28993 20.47 1.17242 19.837 1.27256 19.2222ZM 19.8 23.25L 2.2 23.25L 2.2 22.5L 3.6663 22.5C 3.66653 22.5 3.66676 22.5 3.66699 22.5C 3.66722 22.5 3.66745 22.5 3.66768 22.5L 5.4989 22.5C 5.49931 22.5 5.49968 22.5001 5.50009 22.5001C 5.50073 22.5001 5.50138 22.5 5.50202 22.5L 7.33205 22.5C 7.33242 22.5 7.33278 22.5001 7.33315 22.5001C 7.33356 22.5001 7.33402 22.5 7.33443 22.5L 14.6656 22.5C 14.666 22.5 14.6664 22.5001 14.6668 22.5001C 14.6672 22.5001 14.6676 22.5 14.668 22.5L 16.498 22.5C 16.4986 22.5 16.4993 22.5001 16.4999 22.5001C 16.5003 22.5001 16.5007 22.5 16.5011 22.5L 18.3323 22.5C 18.3326 22.5 18.3328 22.5 18.333 22.5C 18.3332 22.5 18.3335 22.5 18.3337 22.5L 19.8 22.5L 19.8 23.25ZM 20.3965 21.0044L 19.9591 21.75L 18.981 21.75L 19.192 21.3903C 19.5952 20.7032 19.7462 19.8894 19.6174 19.0989L 18.7662 13.875L 19.8561 13.875L 20.7274 19.2222C 20.8276 19.837 20.7101 20.47 20.3965 21.0044Z"/>
<path id="path1_fill" d="M 4.03333 12.375C 4.23583 12.375 4.4 12.2071 4.4 12L 4.4 0.749999L 17.6 0.749999L 17.6 12C 17.6 12.2071 17.7642 12.375 17.9667 12.375C 18.1692 12.375 18.3333 12.2071 18.3333 12L 18.3333 0.749999C 18.3333 0.336468 18.0043 0 17.6 0L 4.4 0C 3.99566 0 3.66667 0.336468 3.66667 0.749999L 3.66667 12C 3.66667 12.2071 3.83084 12.375 4.03333 12.375Z"/>
<path id="path2_fill" d="M 16.5 12.375C 16.7025 12.375 16.8667 12.2071 16.8667 12L 16.8667 1.875C 16.8667 1.6679 16.7025 1.5 16.5 1.5L 5.5 1.5C 5.29751 1.5 5.13333 1.6679 5.13333 1.875L 5.13333 12C 5.13333 12.2071 5.29751 12.375 5.5 12.375C 5.70249 12.375 5.86667 12.2071 5.86667 12L 5.86667 6.37499L 9.53329 6.37499C 9.73578 6.37499 9.89995 6.20708 9.89995 5.99999C 9.89995 5.7929 9.73578 5.62499 9.53329 5.62499L 5.86667 5.62499L 5.86667 2.25L 10.6333 2.25L 10.6333 12C 10.6333 12.2071 10.7975 12.375 11 12.375C 11.2025 12.375 11.3667 12.2071 11.3667 12L 11.3667 6.37499L 16.1333 6.37499L 16.1333 12C 16.1333 12.2071 16.2975 12.375 16.5 12.375ZM 11.3667 5.62499L 11.3667 2.25L 16.1333 2.25L 16.1333 5.62499L 11.3667 5.62499Z"/>
</defs>
</svg>
