<svg width="17" height="18" viewBox="0 0 17 18" version="1.1" xmlns="http://www.w3.org/2000/svg" xmlns:xlink="http://www.w3.org/1999/xlink">
<title>Vector</title>
<desc>Created using Figma</desc>
<g id="Canvas" transform="translate(13509 -787)">
<g id="Vector">
<use xlink:href="#path0_fill" transform="translate(-13509 787)"/>
<use xlink:href="#path1_fill" transform="translate(-13509 787)"/>
</g>
</g>
<defs>
<path id="path0_fill" d="M 8.5008 9.96611C 9.31002 9.96611 9.96602 9.3101 9.96602 8.50089C 9.96602 7.69167 9.31002 7.03567 8.5008 7.03567C 7.69158 7.03567 7.03558 7.69167 7.03558 8.50089C 7.03558 9.3101 7.69158 9.96611 8.5008 9.96611Z"/>
<path id="path1_fill" d="M 16.6554 7.04867L 14.6075 6.66469C 14.4831 6.25048 14.3199 5.85314 14.1177 5.47936L 15.3027 3.74691C 15.4124 3.58657 15.3896 3.34536 15.2521 3.20822L 13.7911 1.74687C 13.6536 1.60939 13.4127 1.58723 13.2531 1.69659L 11.5196 2.88227C 11.1349 2.67481 10.7253 2.50849 10.298 2.38296L 9.91616 0.345647C 9.8803 0.154715 9.69464 0 9.49984 0L 7.43369 0C 7.23925 0 7.05324 0.154715 7.01702 0.345647L 6.63094 2.403C 6.22129 2.52818 5.82853 2.69133 5.45862 2.89246L 3.74761 1.72191C 3.58727 1.6122 3.34606 1.6347 3.20893 1.77219L 1.74757 3.23354C 1.61009 3.37102 1.58794 3.61189 1.69729 3.77223L 2.87523 5.49378C 2.67692 5.86369 2.51623 6.2561 2.39316 6.66504L 0.345295 7.04867C 0.154715 7.08488 0 7.27089 0 7.46534L 0 9.53149C 0 9.72593 0.154715 9.91194 0.345295 9.94851L 2.39175 10.3321C 2.51658 10.7499 2.68114 11.1507 2.88438 11.5273L 1.7198 13.2299C 1.61009 13.3902 1.63259 13.6314 1.77008 13.7682L 3.23108 15.2292C 3.36856 15.367 3.60943 15.3888 3.76977 15.2802L 5.47163 14.1153C 5.83767 14.3132 6.22621 14.4743 6.63164 14.5987L 7.01737 16.6568C 7.05359 16.8477 7.2396 17.0017 7.43404 17.0017L 9.50054 17.0017C 9.69534 17.0017 9.88065 16.8477 9.91722 16.6568L 10.2994 14.6191C 10.7214 14.4947 11.1272 14.3305 11.5083 14.1265L 13.2316 15.3059C 13.392 15.4156 13.6332 15.3931 13.7703 15.2549L 15.2306 13.7946C 15.3688 13.6567 15.3906 13.4166 15.2816 13.2559L 14.1089 11.5424C 14.316 11.1613 14.4824 10.7558 14.6093 10.3328L 16.6554 9.94922C 16.8456 9.91265 17 9.72664 17 9.53219L 17 7.46604C 17.0014 7.27089 16.8463 7.08488 16.6554 7.04867ZM 8.50087 12.047C 6.54303 12.047 4.95544 10.4594 4.95544 8.50052C 4.95544 6.54303 6.54303 4.95509 8.50087 4.95509C 10.4594 4.95509 12.0474 6.54303 12.0474 8.50052C 12.0474 10.4594 10.4587 12.047 8.50087 12.047Z"/>
</defs>
</svg>
