<svg width="26" height="26" viewBox="0 0 26 26" version="1.1" xmlns="http://www.w3.org/2000/svg" xmlns:xlink="http://www.w3.org/1999/xlink">
<title>youtube-symbol</title>
<desc>Created using Figma</desc>
<g id="Canvas" transform="translate(-606 -8610)">
<g id="youtube-symbol">
<g id="Group">
<g id="Group">
<g id="Vector">
<mask id="mask0_outline_ins">
<use xlink:href="#path0_fill" fill="white" transform="translate(606 8610)"/>
</mask>
<g mask="url(#mask0_outline_ins)">
<use xlink:href="#path1_stroke_2x" transform="translate(606 8610)" fill="#FFFFFF"/>
</g>
</g>
<g id="Vector">
<use xlink:href="#path2_fill" transform="translate(616.631 8619.78)" fill="#FFFFFF"/>
</g>
<g id="Vector">
<mask id="mask1_outline_ins">
<use xlink:href="#path3_fill" fill="white" transform="translate(611.201 8617.56)"/>
</mask>
<g mask="url(#mask1_outline_ins)">
<use xlink:href="#path4_stroke_2x" transform="translate(611.201 8617.56)" fill="#FFFFFF"/>
</g>
</g>
</g>
</g>
</g>
</g>
<defs>
<path id="path0_fill" d="M 12.9997 0C 5.82043 0 0 5.82016 0 12.9997C 0 20.1793 5.82043 25.9995 12.9997 25.9995C 20.1791 25.9995 25.9995 20.1793 25.9995 12.9997C 25.9995 5.82016 20.1791 0 12.9997 0Z"/>
<path id="path1_stroke_2x" d="M 12.9997 -1C 5.26816 -1 -1 5.26786 -1 12.9997L 1 12.9997C 1 6.37246 6.3727 1 12.9997 1L 12.9997 -1ZM -1 12.9997C -1 20.7316 5.26816 26.9995 12.9997 26.9995L 12.9997 24.9995C 6.3727 24.9995 1 19.627 1 12.9997L -1 12.9997ZM 12.9997 26.9995C 20.7313 26.9995 26.9995 20.7316 26.9995 12.9997L 24.9995 12.9997C 24.9995 19.627 19.6268 24.9995 12.9997 24.9995L 12.9997 26.9995ZM 26.9995 12.9997C 26.9995 5.26786 20.7313 -1 12.9997 -1L 12.9997 1C 19.6268 1 24.9995 6.37246 24.9995 12.9997L 26.9995 12.9997Z"/>
<path id="path2_fill" d="M 4.70789e-07 6.07045C 1.95069 5.05893 3.88437 4.05672 5.83586 3.04467C 3.87851 2.0233 1.94537 1.01524 4.70789e-07 -1.62341e-08C 4.70789e-07 2.03049 4.70789e-07 4.04023 4.70789e-07 6.07045Z"/>
<path id="path3_fill" d="M 15.3251 9.12299C 15.1339 9.95243 14.4554 10.5642 13.6389 10.6553C 11.705 10.8716 9.74776 10.8727 7.79848 10.8716C 5.8492 10.8727 3.89156 10.8716 1.95719 10.6553C 1.14064 10.5642 0.46263 9.95243 0.271883 9.12299C 1.01293e-07 7.94145 0 6.6521 0 5.43597C 0 4.21985 0.00316407 2.93004 0.275046 1.74895C 0.465794 0.919516 1.1438 0.307498 1.96036 0.216192C 3.89472 0.000133048 5.85237 -0.000996527 7.80165 0.000133491C 9.75048 -0.000996527 11.7081 0.000133048 13.6418 0.216192C 14.4588 0.307498 15.1373 0.91929 15.328 1.74895C 15.5999 2.93027 15.5976 4.21985 15.5976 5.43597C 15.5976 6.6521 15.597 7.94167 15.3251 9.12299Z"/>
<path id="path4_stroke_2x" d="M 15.3251 9.12299L 16.2995 9.34762L 16.2996 9.34728L 15.3251 9.12299ZM 13.6389 10.6553L 13.528 9.66146L 13.5277 9.66149L 13.6389 10.6553ZM 7.79848 10.8716L 7.79906 9.87158L 7.7979 9.87158L 7.79848 10.8716ZM 1.95719 10.6553L 2.06831 9.66149L 2.06805 9.66146L 1.95719 10.6553ZM 0.271883 9.12299L 1.24644 8.89887L 1.24641 8.89875L 0.271883 9.12299ZM 0.275046 1.74895L 1.24956 1.97328L 1.24961 1.97307L 0.275046 1.74895ZM 1.96036 0.216192L 1.84935 -0.777627L 1.84923 -0.777614L 1.96036 0.216192ZM 7.80165 0.000133491L 7.80107 1.00013L 7.80223 1.00013L 7.80165 0.000133491ZM 13.6418 0.216192L 13.7529 -0.777621L 13.7528 -0.777623L 13.6418 0.216192ZM 15.328 1.74895L 14.3534 1.97301L 14.3535 1.97324L 15.328 1.74895ZM 14.3506 8.89837C 14.2515 9.32825 13.9083 9.61904 13.528 9.66146L 13.7497 11.6491C 15.0025 11.5094 16.0162 10.5766 16.2995 9.34762L 14.3506 8.89837ZM 13.5277 9.66149C 11.649 9.87315 9.74776 9.87271 7.79906 9.87158L 7.7979 11.8716C 9.74776 11.8727 11.7609 11.87 13.75 11.6491L 13.5277 9.66149ZM 7.7979 9.87158C 5.8492 9.87271 3.94749 9.87315 2.06831 9.66149L 1.84607 11.6491C 3.83562 11.87 5.8492 11.8727 7.79906 11.8716L 7.7979 9.87158ZM 2.06805 9.66146C 1.68799 9.61907 1.34526 9.32857 1.24644 8.89887L -0.702679 9.34712C -0.420003 10.5763 0.593288 11.5094 1.84634 11.6491L 2.06805 9.66146ZM 1.24641 8.89875C 0.993613 7.8286 1 6.6521 1 5.43597L -1 5.43597C -1 6.6521 -0.993613 8.05429 -0.70265 9.34724L 1.24641 8.89875ZM 1 5.43597C 0.999999 4.22107 0.996633 3.04415 1.24956 1.97328L -0.699467 1.52462C -0.990305 2.81594 -0.999999 4.21862 -1 5.43597L 1 5.43597ZM 1.24961 1.97307C 1.34846 1.54324 1.69135 1.2525 2.07148 1.21L 1.84923 -0.777614C 0.596261 -0.637509 -0.416869 0.295789 -0.699515 1.52483L 1.24961 1.97307ZM 2.07136 1.21001C 3.9506 0.998571 5.85236 0.999003 7.80107 1.00013L 7.80223 -0.999866C 5.85237 -1.001 3.83884 -0.998305 1.84935 -0.777627L 2.07136 1.21001ZM 7.80223 1.00013C 9.75048 0.999003 11.6522 0.99857 13.5308 1.21001L 13.7528 -0.777623C 11.764 -0.998304 9.75047 -1.001 7.80107 -0.999866L 7.80223 1.00013ZM 13.5307 1.21001C 13.9118 1.25259 14.2547 1.54355 14.3534 1.97301L 16.3026 1.52488C 16.0198 0.295027 15.0058 -0.637598 13.7529 -0.777621L 13.5307 1.21001ZM 14.3535 1.97324C 14.6062 3.04226 14.5976 4.21897 14.5976 5.43597L 16.5976 5.43597C 16.5976 4.22072 16.5936 2.81828 16.3025 1.52466L 14.3535 1.97324ZM 14.5976 5.43597C 14.5976 6.65183 14.6034 7.82855 14.3506 8.89871L 16.2996 9.34728C 16.5905 8.0548 16.5976 6.65236 16.5976 5.43597L 14.5976 5.43597Z"/>
</defs>
</svg>
