<svg width="17" height="17" viewBox="0 0 17 17" version="1.1" xmlns="http://www.w3.org/2000/svg" xmlns:xlink="http://www.w3.org/1999/xlink">
<title>Vector</title>
<desc>Created using Figma</desc>
<g id="Canvas" transform="translate(-461 -1540)">
<g id="Vector">
<use xlink:href="#path0_fill" transform="translate(461 1540)" fill="#0E5887"/>
<use xlink:href="#path1_fill" transform="translate(461 1540)" fill="#0E5887"/>
</g>
</g>
<defs>
<path id="path0_fill" d="M 4.98869 8.00062C 4.75428 7.76648 4.37336 7.76648 4.13895 8.00062C 3.90453 8.23475 3.90453 8.61521 4.13895 8.84934L 6.90795 11.615C 7.02516 11.7321 7.17167 11.7906 7.33283 11.7906C 7.34748 11.7906 7.34748 11.7906 7.36213 11.7906C 7.52329 11.776 7.68445 11.7028 7.80165 11.5711L 14.7315 3.27409C 14.9366 3.02533 14.9073 2.64486 14.6582 2.42537C 14.4092 2.2205 14.0283 2.24977 13.8085 2.49853L 7.28887 10.298L 4.98869 8.00062Z"/>
<path id="path1_fill" d="M 12.988 1.29858C 9.61827 -0.808606 5.29627 -0.311077 2.48332 2.4985C -0.827772 5.8056 -0.827772 11.2053 2.48332 14.5124C 4.13886 16.1659 6.32183 17 8.49016 17C 10.6585 17 12.8415 16.1659 14.497 14.5124C 17.3246 11.6881 17.8081 7.35672 15.6837 3.99108C 15.5079 3.71305 15.1416 3.62525 14.8633 3.80085C 14.5849 3.97645 14.497 4.34228 14.6728 4.62031C 16.5042 7.51769 16.0793 11.2345 13.6472 13.6636C 10.805 16.5025 6.16067 16.5025 3.31841 13.6636C 0.476152 10.8248 0.476152 6.18606 3.31841 3.34722C 5.75045 0.932745 9.45711 0.508382 12.358 2.30827C 12.6363 2.48386 13.0026 2.39607 13.1784 2.11803C 13.3542 1.84 13.2663 1.47417 12.988 1.29858Z"/>
</defs>
</svg>
