<svg width="13" height="13" viewBox="0 0 13 13" version="1.1" xmlns="http://www.w3.org/2000/svg" xmlns:xlink="http://www.w3.org/1999/xlink">
<title>clock</title>
<desc>Created using Figma</desc>
<g id="Canvas" transform="translate(419 339)">
<g id="clock">
<g id="Group">
<g id="Vector">
<use xlink:href="#path0_fill" transform="translate(-419 -339)"/>
</g>
<g id="Vector">
<use xlink:href="#path1_fill" transform="translate(-415.1 -335.776)"/>
</g>
<g id="Vector">
<use xlink:href="#path2_fill" transform="translate(-412.717 -337.51)"/>
</g>
<g id="Vector">
<use xlink:href="#path3_fill" transform="translate(-412.717 -328.193)"/>
</g>
<g id="Vector">
<use xlink:href="#path4_fill" transform="translate(-408.167 -332.743)"/>
</g>
<g id="Vector">
<use xlink:href="#path4_fill" transform="translate(-417.483 -332.743)"/>
</g>
<g id="Vector">
<use xlink:href="#path5_fill" transform="translate(-409.499 -336.114)"/>
</g>
<g id="Vector">
<use xlink:href="#path6_fill" transform="translate(-416.087 -329.526)"/>
</g>
<g id="Vector">
<use xlink:href="#path7_fill" transform="translate(-409.499 -329.526)"/>
</g>
<g id="Vector">
<use xlink:href="#path8_fill" transform="translate(-416.087 -336.114)"/>
</g>
</g>
</g>
</g>
<defs>
<path id="path0_fill" d="M 6.5 0C 2.9159 0 0 2.9159 0 6.5C 0 10.0841 2.9159 13 6.5 13C 10.0841 13 13 10.0841 13 6.5C 13 2.9159 10.0841 0 6.5 0ZM 6.5 12.5667C 3.15488 12.5667 0.433333 9.84512 0.433333 6.5C 0.433333 3.15488 3.15488 0.433333 6.5 0.433333C 9.84512 0.433333 12.5667 3.15488 12.5667 6.5C 12.5667 9.84512 9.84512 12.5667 6.5 12.5667Z"/>
<path id="path1_fill" d="M 2.81667 2.4141L 2.81667 0.216667C 2.81667 0.0968499 2.7196 -6.28153e-08 2.6 -6.28153e-08C 2.4804 -6.28153e-08 2.38333 0.0968499 2.38333 0.216667L 2.38333 2.4141C 2.08022 2.49297 1.84297 2.73022 1.7641 3.03333L 0.216667 3.03333C 0.0970667 3.03333 0 3.13018 0 3.25C 0 3.36982 0.0970667 3.46667 0.216667 3.46667L 1.7641 3.46667C 1.86095 3.83933 2.19743 4.11667 2.6 4.11667C 3.07797 4.11667 3.46667 3.72797 3.46667 3.25C 3.46667 2.84722 3.18933 2.51095 2.81667 2.4141ZM 2.6 3.68333C 2.36102 3.68333 2.16667 3.48898 2.16667 3.25C 2.16667 3.01102 2.36102 2.81667 2.6 2.81667C 2.83898 2.81667 3.03333 3.01102 3.03333 3.25C 3.03333 3.48898 2.83898 3.68333 2.6 3.68333Z"/>
<path id="path2_fill" d="M 0.216667 0.65C 0.336267 0.65 0.433333 0.55315 0.433333 0.433333L 0.433333 0.216667C 0.433333 0.0968501 0.336267 4.04994e-08 0.216667 4.04994e-08C 0.0970667 4.04994e-08 0 0.0968501 0 0.216667L 0 0.433333C 0 0.55315 0.0970667 0.65 0.216667 0.65Z"/>
<path id="path3_fill" d="M 0.216667 3.50444e-07C 0.0970667 3.50444e-07 0 0.0968504 0 0.216667L 0 0.433334C 0 0.55315 0.0970667 0.65 0.216667 0.65C 0.336267 0.65 0.433333 0.55315 0.433333 0.433334L 0.433333 0.216667C 0.433333 0.0968504 0.336267 3.50444e-07 0.216667 3.50444e-07Z"/>
<path id="path4_fill" d="M 0.433333 -6.28154e-08L 0.216667 -6.28154e-08C 0.0970667 -6.28154e-08 0 0.0968499 0 0.216667C 0 0.336483 0.0970667 0.433333 0.216667 0.433333L 0.433333 0.433333C 0.552933 0.433333 0.65 0.336483 0.65 0.216667C 0.65 0.0968499 0.552933 -6.28154e-08 0.433333 -6.28154e-08Z"/>
<path id="path5_fill" d="M 0.216721 0.0634562L 0.0635371 0.21664C -0.0211795 0.301356 -0.0211795 0.43829 0.0635371 0.523006C 0.105787 0.565256 0.161254 0.586489 0.216721 0.586489C 0.272187 0.586489 0.327654 0.565256 0.369904 0.523006L 0.523088 0.369823C 0.607804 0.285106 0.607804 0.148173 0.523088 0.0634562C 0.438371 -0.0212604 0.301437 -0.0210438 0.216721 0.0634562Z"/>
<path id="path6_fill" d="M 0.216721 0.0634563L 0.0635376 0.21664C -0.0211791 0.301356 -0.0211791 0.438289 0.0635376 0.523006C 0.105788 0.565256 0.161254 0.58649 0.216721 0.58649C 0.272188 0.58649 0.327654 0.565256 0.369904 0.523006L 0.523087 0.369823C 0.607804 0.285107 0.607804 0.148173 0.523087 0.0634563C 0.438371 -0.0212604 0.301221 -0.0210437 0.216721 0.0634563Z"/>
<path id="path7_fill" d="M 0.369904 0.0635375C 0.285187 -0.0211792 0.148254 -0.0211792 0.0635371 0.0635375C -0.0211795 0.148254 -0.0211795 0.285188 0.0635371 0.369904L 0.216721 0.523087C 0.258971 0.565337 0.314437 0.586571 0.369904 0.586571C 0.425371 0.586571 0.480838 0.565337 0.523088 0.523087C 0.607804 0.43837 0.607804 0.301438 0.523088 0.216721L 0.369904 0.0635375Z"/>
<path id="path8_fill" d="M 0.369904 0.0635375C 0.285187 -0.0211792 0.148254 -0.0211792 0.0635376 0.0635375C -0.0211791 0.148254 -0.0211791 0.285188 0.0635376 0.369904L 0.216721 0.523088C 0.258971 0.565338 0.314437 0.586571 0.369904 0.586571C 0.425371 0.586571 0.480837 0.565338 0.523087 0.523088C 0.607804 0.438371 0.607804 0.301437 0.523087 0.216721L 0.369904 0.0635375Z"/>
</defs>
</svg>
