<svg width="24" height="25" viewBox="0 0 24 25" version="1.1" xmlns="http://www.w3.org/2000/svg" xmlns:xlink="http://www.w3.org/1999/xlink">
<title>facebook</title>
<desc>Created using Figma</desc>
<g id="Canvas" transform="translate(479 455)">
<g id="facebook">
<g id="bg">
<use xlink:href="#path0_fill" transform="translate(-479 -454.008)" fill="#3B5998"/>
<mask id="mask0_outline_ins">
<use xlink:href="#path0_fill" fill="white" transform="translate(-479 -454.008)"/>
</mask>
<g mask="url(#mask0_outline_ins)">
<use xlink:href="#path1_stroke_2x" transform="translate(-479 -454.008)" fill="url(#paint1_linear)" fill-opacity="0.1"/>
</g>
</g>
<g id="&#239;&#130;&#154;">
<use xlink:href="#path2_fill" transform="translate(-469.812 -447.073)" fill="#FFFFFF"/>
</g>
</g>
</g>
<defs>
<linearGradient id="paint1_linear" x1="0" y1="0" x2="1" y2="0" gradientUnits="userSpaceOnUse" gradientTransform="matrix(1.46958e-15 23.9699 -24 1.46774e-15 24 -1.46774e-15)">
<stop offset="0" stop-color="#FFFFFF" stop-opacity="0"/>
<stop offset="1" stop-color="#FFFFFF" stop-opacity="0.5"/>
</linearGradient>
<path id="path0_fill" d="M 0 11.985C 0 5.36586 5.36586 0 11.985 0L 12.015 0C 18.6341 0 24 5.36586 24 11.985C 24 18.6041 18.6341 23.9699 12.015 23.9699L 11.985 23.9699C 5.36586 23.9699 0 18.6041 0 11.985Z"/>
<path id="path1_stroke_2x" d="M 11.985 1L 12.015 1L 12.015 -1L 11.985 -1L 11.985 1ZM 12.015 22.9699L 11.985 22.9699L 11.985 24.9699L 12.015 24.9699L 12.015 22.9699ZM 11.985 -1C 4.81357 -1 -1 4.81357 -1 11.985L 1 11.985C 1 5.91814 5.91814 1 11.985 1L 11.985 -1ZM 12.015 1C 18.0819 1 23 5.91814 23 11.985L 25 11.985C 25 4.81357 19.1864 -1 12.015 -1L 12.015 1ZM 23 11.985C 23 18.0518 18.0819 22.9699 12.015 22.9699L 12.015 24.9699C 19.1864 24.9699 25 19.1564 25 11.985L 23 11.985ZM 11.985 22.9699C 5.91814 22.9699 1 18.0518 1 11.985L -1 11.985C -1 19.1564 4.81357 24.9699 11.985 24.9699L 11.985 22.9699Z"/>
<path id="path2_fill" d="M 5.20714 0.0722309C 5.04442 0.0481539 4.48393 0 3.83304 0C 2.47098 0 1.53683 0.830655 1.53683 2.35352L 1.53683 3.66572L 0 3.66572L 0 5.44741L 1.53683 5.44741L 1.53683 10.016L 3.38103 10.016L 3.38103 5.44741L 4.91183 5.44741L 5.14688 3.66572L 3.38103 3.66572L 3.38103 2.52808C 3.38103 2.01644 3.51964 1.66131 4.26094 1.66131L 5.20714 1.66131L 5.20714 0.0722309Z"/>
</defs>
</svg>
