<svg width="14" height="24" viewBox="0 0 14 24" version="1.1" xmlns="http://www.w3.org/2000/svg" xmlns:xlink="http://www.w3.org/1999/xlink">
<title>windows (1)</title>
<desc>Created using Figma</desc>
<g id="Canvas" transform="translate(-522 267)">
<g id="windows (1)">
<g id="Group">
<g id="Group">
<g id="Vector">
<use xlink:href="#path0_fill" transform="translate(523.964 -265.378)" fill="#FFFFFF"/>
</g>
</g>
</g>
<g id="Group">
<g id="Group">
<g id="Vector">
<use xlink:href="#path1_fill" transform="translate(522.8 -267)" fill="#FFFFFF"/>
</g>
</g>
</g>
</g>
</g>
<defs>
<path id="path0_fill" d="M 5.44978 0.0210649C 5.36463 -0.00702167 5.25109 -0.00702167 5.16594 0.0210649C 4.96725 0.161498 1.21812e-07 2.97016 1.21812e-07 5.91925L 1.21812e-07 8.55939L 1.21812e-07 20.7771C 1.21812e-07 20.9456 0.113537 21.0579 0.283843 21.0579L 5.30786 21.0579L 5.33624 21.0579L 10.3603 21.0579C 10.5306 21.0579 10.6441 20.9456 10.6441 20.7771L 10.6441 8.55939L 10.6441 5.91925C 10.6157 2.97016 5.67686 0.161498 5.44978 0.0210649ZM 4.99563 20.4962L 0.567685 20.4962L 0.567685 8.55939C 0.567685 7.63253 2.04367 6.39672 2.78166 5.89116C 3.51965 6.39672 4.99563 7.63253 4.99563 8.55939L 4.99563 20.4962ZM 10.048 20.4962L 5.62009 20.4962L 5.62009 8.55939C 5.62009 7.63253 7.09607 6.39672 7.83406 5.89116C 8.57205 6.39672 10.048 7.63253 10.048 8.55939L 10.048 20.4962ZM 10.048 7.15506C 9.33843 6.20012 8.17467 5.41369 7.97598 5.30134C 7.89083 5.24517 7.74891 5.24517 7.66375 5.30134C 7.43668 5.44178 5.93231 6.48098 5.30786 7.63253C 4.68341 6.48098 3.15066 5.44178 2.95197 5.30134C 2.86681 5.24517 2.72489 5.24517 2.63974 5.30134C 2.46943 5.41369 1.27729 6.20012 0.567685 7.15506L 0.567685 5.91925C 0.567685 3.55998 4.5131 1.08836 5.30786 0.610883C 6.10262 1.08836 10.048 3.53189 10.048 5.91925L 10.048 7.15506Z"/>
<path id="path1_fill" d="M 6.64192 0.0421299C 6.55677 -0.0140433 6.44323 -0.0140433 6.35808 0.0421299C 6.10262 0.182563 -1.21812e-07 3.6653 -1.21812e-07 7.26039L -1.21812e-07 23.7191C -1.21812e-07 23.8877 0.113537 24 0.283843 24L 12.7162 24C 12.8865 24 13 23.8877 13 23.7191L 13 7.26039C 13 3.63722 6.89738 0.182563 6.64192 0.0421299ZM 12.4323 23.4383L 0.539301 23.4383L 0.539301 7.26039C 0.539301 4.25512 5.56332 1.13751 6.47162 0.603862C 7.4083 1.13751 12.4323 4.25512 12.4323 7.26039L 12.4323 23.4383Z"/>
</defs>
</svg>
