<svg width="18" height="19" viewBox="0 0 18 19" version="1.1" xmlns="http://www.w3.org/2000/svg" xmlns:xlink="http://www.w3.org/1999/xlink">
<title>Zoom In</title>
<desc>Created using Figma</desc>
<g id="Canvas" transform="translate(-374 345)">
<g id="Zoom In">
<g id="Vector">
<use xlink:href="#path0_stroke" transform="translate(375 -343.018)" fill="#FFFFFF"/>
</g>
<g id="Vector">
<use xlink:href="#path1_stroke" transform="translate(386.152 -331.88)" fill="#FFFFFF"/>
</g>
</g>
</g>
<defs>
<path id="path0_stroke" d="M 11.928 6.4559C 11.928 9.46794 9.48286 11.9118 6.464 11.9118L 6.464 13.9118C 10.5851 13.9118 13.928 10.5749 13.928 6.4559L 11.928 6.4559ZM 6.464 11.9118C 3.44513 11.9118 1 9.46794 1 6.4559L -1 6.4559C -1 10.5749 2.34293 13.9118 6.464 13.9118L 6.464 11.9118ZM 1 6.4559C 1 3.44387 3.44513 1 6.464 1L 6.464 -1C 2.34293 -1 -1 2.33694 -1 6.4559L 1 6.4559ZM 6.464 1C 9.48286 1 11.928 3.44387 11.928 6.4559L 13.928 6.4559C 13.928 2.33694 10.5851 -1 6.464 -1L 6.464 1Z"/>
<path id="path1_stroke" d="M 0.706664 -0.70755C 0.315895 -1.09783 -0.31727 -1.09743 -0.70755 -0.706664C -1.09783 -0.315895 -1.09743 0.31727 -0.706664 0.70755L 0.706664 -0.70755ZM 4.14134 5.54948C 4.53211 5.93976 5.16527 5.93936 5.55555 5.54859C 5.94583 5.15782 5.94543 4.52466 5.55466 4.13438L 4.14134 5.54948ZM -0.706664 0.70755L 4.14134 5.54948L 5.55466 4.13438L 0.706664 -0.70755L -0.706664 0.70755Z"/>
</defs>
</svg>
