<svg width="26" height="26" viewBox="0 0 26 26" version="1.1" xmlns="http://www.w3.org/2000/svg" xmlns:xlink="http://www.w3.org/1999/xlink">
<title>32px_User 2</title>
<desc>Created using Figma</desc>
<g id="Canvas" transform="translate(-600 455)">
<g id="32px_User 2">
<g id="User 2">
<g id="Vector">
<use xlink:href="#path0_stroke" transform="translate(601 -454.008)" fill="#FFFFFF"/>
</g>
<g id="Vector">
<use xlink:href="#path1_stroke" transform="translate(608.552 -450.292)" fill="#FFFFFF"/>
</g>
<g id="Vector">
<use xlink:href="#path2_stroke" transform="translate(604.465 -438.539)" fill="#FFFFFF"/>
</g>
</g>
</g>
</g>
<defs>
<path id="path0_stroke" d="M 23.5 11.985C 23.5 18.3274 18.3519 23.4699 12 23.4699L 12 24.4699C 18.903 24.4699 24.5 18.8808 24.5 11.985L 23.5 11.985ZM 12 23.4699C 5.64813 23.4699 0.5 18.3274 0.5 11.985L -0.5 11.985C -0.5 18.8808 5.09703 24.4699 12 24.4699L 12 23.4699ZM 0.5 11.985C 0.5 5.64259 5.64813 0.5 12 0.5L 12 -0.5C 5.09703 -0.5 -0.5 5.08912 -0.5 11.985L 0.5 11.985ZM 12 0.5C 18.3519 0.5 23.5 5.64259 23.5 11.985L 24.5 11.985C 24.5 5.08912 18.903 -0.5 12 -0.5L 12 0.5Z"/>
<path id="path1_stroke" d="M 9.19 4.83893C 9.19 7.23467 7.24527 9.17786 4.845 9.17786L 4.845 10.1779C 7.79637 10.1779 10.19 7.78813 10.19 4.83893L 9.19 4.83893ZM 4.845 9.17786C 2.44473 9.17786 0.5 7.23467 0.5 4.83893L -0.5 4.83893C -0.5 7.78813 1.89363 10.1779 4.845 10.1779L 4.845 9.17786ZM 0.5 4.83893C 0.5 2.4432 2.44473 0.5 4.845 0.5L 4.845 -0.5C 1.89363 -0.5 -0.5 1.88973 -0.5 4.83893L 0.5 4.83893ZM 4.845 0.5C 7.24527 0.5 9.19 2.4432 9.19 4.83893L 10.19 4.83893C 10.19 1.88973 7.79637 -0.5 4.845 -0.5L 4.845 0.5Z"/>
<path id="path2_stroke" d="M 17.1809 4.24299C 17.2903 4.49654 17.5845 4.61341 17.8381 4.50403C 18.0916 4.39464 18.2085 4.10042 18.0991 3.84687L 17.1809 4.24299ZM -0.490991 4.68452C -0.543175 4.95569 -0.365654 5.21782 -0.0944872 5.27C 0.17668 5.32218 0.438807 5.14466 0.490991 4.8735L -0.490991 4.68452ZM 18.0991 3.84687C 17.5323 2.53302 16.2927 1.44828 14.7006 0.696718C 13.1239 -0.0441705 11.0909 -0.497002 8.9325 -0.5L 8.9325 0.5C 10.9816 0.497002 12.7998 0.901844 14.2737 1.60102C 15.7323 2.28953 16.7427 3.22726 17.1809 4.24299L 18.0991 3.84687ZM 8.9325 -0.5C 6.56179 -0.496301 4.33834 0.0561543 2.69034 0.941071C 1.02682 1.83885 -0.193186 3.13701 -0.490991 4.68452L 0.490991 4.8735C 0.710686 3.73188 1.64693 2.64053 3.16528 1.82109C 4.69917 0.988785 6.68321 0.496301 8.9325 0.5L 8.9325 -0.5Z"/>
</defs>
</svg>
