<svg width="24" height="25" viewBox="0 0 24 25" version="1.1" xmlns="http://www.w3.org/2000/svg" xmlns:xlink="http://www.w3.org/1999/xlink">
<title>youtube-symbol</title>
<desc>Created using Figma</desc>
<g id="Canvas" transform="translate(362 455)">
<g id="youtube-symbol">
<g id="Group">
<g id="Group">
<g id="Vector">
<use xlink:href="#path0_fill" transform="translate(-362 -454.008)" fill="#FFFFFF"/>
</g>
<g id="Vector">
<use xlink:href="#path1_fill" transform="translate(-352.187 -444.992)" fill="#D80027"/>
</g>
<g id="Vector">
<use xlink:href="#path2_fill" transform="translate(-362 -454.008)" fill="#D80027"/>
</g>
</g>
</g>
</g>
</g>
<defs>
<path id="path0_fill" d="M 12 0C 5.37281 0 0 5.36584 0 11.985C 0 18.6041 5.37281 23.9699 12 23.9699C 18.6272 23.9699 24 18.6041 24 11.985C 24 5.36584 18.6272 0 12 0Z"/>
<path id="path1_fill" d="M 4.34583e-07 5.59658C 1.80068 4.66402 3.58564 3.74005 5.38705 2.807C 3.58024 1.86536 1.79577 0.935993 4.34583e-07 -1.49669e-08C 4.34583e-07 1.87199 4.34583e-07 3.72484 4.34583e-07 5.59658Z"/>
<path id="path2_fill" d="M 12 0C 5.37281 0 0 5.36584 0 11.985C 0 18.6041 5.37281 23.9699 12 23.9699C 18.6272 23.9699 24 18.6041 24 11.985C 24 5.36584 18.6272 0 12 0ZM 20.1762 15.9854C 19.9685 16.8854 19.2314 17.5492 18.3443 17.648C 16.2434 17.8827 14.1172 17.8839 11.9995 17.8827C 9.88186 17.8839 7.75513 17.8827 5.65369 17.648C 4.76661 17.5492 4.03004 16.8854 3.82281 15.9854C 3.52745 14.7034 3.52745 13.3045 3.52745 11.985C 3.52745 10.6655 3.53088 9.26601 3.82625 7.98451C 4.03347 7.08456 4.77005 6.42051 5.65713 6.32144C 7.75857 6.08702 9.8853 6.08579 12.0029 6.08702C 14.1201 6.08579 16.2468 6.08702 18.3475 6.32144C 19.2351 6.42051 19.9722 7.08431 20.1794 7.98451C 20.4748 9.26625 20.4723 10.6655 20.4723 11.985C 20.4723 13.3045 20.4716 14.7037 20.1762 15.9854Z"/>
</defs>
</svg>
