<svg width="64" height="80" viewBox="0 0 64 80" version="1.1" xmlns="http://www.w3.org/2000/svg" xmlns:xlink="http://www.w3.org/1999/xlink">
<title>Vector</title>
<desc>Created using Figma</desc>
<g id="Canvas" transform="translate(256 -4088)">
<g id="Vector">
<use xlink:href="#path0_stroke" transform="translate(-254 4090)" fill="url(#paint0_linear)"/>
</g>
</g>
<defs>
<linearGradient id="paint0_linear" x1="0" y1="0" x2="1" y2="0" gradientUnits="userSpaceOnUse" gradientTransform="matrix(-59.4789 -8.30716e-14 -1.3162e-12 -2226.15 59.4789 1177.13)">
<stop offset="0" stop-color="#BA2626"/>
<stop offset="1" stop-color="#BA2626" stop-opacity="0"/>
</linearGradient>
<path id="path0_stroke" d="M 48.6004 51.0457C 47.9916 50.4838 47.0426 50.5219 46.4808 51.1307C 45.919 51.7395 45.9571 52.6885 46.5659 53.2503L 48.6004 51.0457ZM 59.6811 63.3126L 60.6984 62.2103L 59.6811 63.3126ZM 59.6811 64.7732L 60.7014 65.8727L 59.6811 64.7732ZM 46.5628 74.9005C 45.9556 75.464 45.9201 76.4131 46.4836 77.0203C 47.0472 77.6276 47.9962 77.663 48.6035 77.0995L 46.5628 74.9005ZM 1.5 -6.58575e-19C 1.5 -0.828427 0.828427 -1.5 -6.58575e-19 -1.5C -0.828427 -1.5 -1.5 -0.828427 -1.5 6.58575e-19L 1.5 -6.58575e-19ZM 59.592 65.5531C 60.418 65.4907 61.0371 64.7704 60.9746 63.9443C 60.9122 63.1183 60.1919 62.4992 59.3658 62.5617L 59.592 65.5531ZM 46.5659 53.2503L 58.6638 64.415L 60.6984 62.2103L 48.6004 51.0457L 46.5659 53.2503ZM 58.6607 63.6737L 46.5628 74.9005L 48.6035 77.0995L 60.7014 65.8727L 58.6607 63.6737ZM 58.6638 64.415C 58.4436 64.2118 58.4482 63.8709 58.6607 63.6737L 60.7014 65.8727C 61.7644 64.8862 61.769 63.1983 60.6984 62.2103L 58.6638 64.415ZM -1.5 6.58575e-19C -1.5 26.1578 3.54966 43.4285 13.9394 53.7362C 24.3604 64.0748 39.784 67.0507 59.592 65.5531L 59.3658 62.5617C 39.8576 64.0365 25.5418 61.021 16.0523 51.6065C 6.53169 42.1611 1.5 25.9169 1.5 -6.58575e-19L -1.5 6.58575e-19Z"/>
</defs>
</svg>
