<svg width="76" height="79" viewBox="0 0 76 79" version="1.1" xmlns="http://www.w3.org/2000/svg" xmlns:xlink="http://www.w3.org/1999/xlink">
<title>banch</title>
<desc>Created using Figma</desc>
<g id="Canvas" transform="translate(-585 -113)">
<g id="banch">
<g id="Rectangle 28" filter="url(#filter0_d)">
<use xlink:href="#path0_fill" transform="translate(596.086 119.32)" fill="#BA2626"/>
<use xlink:href="#path0_fill" transform="translate(596.086 119.32)" fill="url(#paint1_linear)"/>
<mask id="mask0_outline_ins">
<use xlink:href="#path0_fill" fill="white" transform="translate(596.086 119.32)"/>
</mask>
<g mask="url(#mask0_outline_ins)">
<use xlink:href="#path1_stroke_2x" transform="translate(596.086 119.32)" fill="#000000" fill-opacity="0.2"/>
</g>
</g>
<g id="%" filter="url(#filter1_di)">
<use xlink:href="#path2_fill" transform="translate(614.038 132.32)" fill="#FFFFFF"/>
</g>
</g>
</g>
<defs>
<filter id="filter0_d" filterUnits="userSpaceOnUse" x="585" y="113" width="76" height="79" color-interpolation-filters="sRGB">
<feFlood flood-opacity="0" result="BackgroundImageFix"/>
<feColorMatrix in="SourceAlpha" type="matrix" values="0 0 0 0 0 0 0 0 0 0 0 0 0 0 0 0 0 0 255 0"/>
<feOffset dx="-1" dy="4"/>
<feGaussianBlur stdDeviation="5"/>
<feColorMatrix type="matrix" values="0 0 0 0 0 0 0 0 0 0 0 0 0 0 0 0 0 0 0.2 0"/>
<feBlend mode="normal" in2="BackgroundImageFix" result="effect1_dropShadow"/>
<feBlend mode="normal" in="SourceGraphic" in2="effect1_dropShadow" result="shape"/>
</filter>
<filter id="filter1_di" filterUnits="userSpaceOnUse" x="609" y="127" width="28" height="29" color-interpolation-filters="sRGB">
<feFlood flood-opacity="0" result="BackgroundImageFix"/>
<feColorMatrix in="SourceAlpha" type="matrix" values="0 0 0 0 0 0 0 0 0 0 0 0 0 0 0 0 0 0 255 0"/>
<feOffset dx="-1" dy="-1"/>
<feGaussianBlur stdDeviation="2"/>
<feColorMatrix type="matrix" values="0 0 0 0 0 0 0 0 0 0 0 0 0 0 0 0 0 0 0.3 0"/>
<feBlend mode="normal" in2="BackgroundImageFix" result="effect1_dropShadow"/>
<feBlend mode="normal" in="SourceGraphic" in2="effect1_dropShadow" result="shape"/>
<feColorMatrix in="SourceAlpha" type="matrix" values="0 0 0 0 0 0 0 0 0 0 0 0 0 0 0 0 0 0 255 0" result="hardAlpha"/>
<feOffset dx="0" dy="0"/>
<feGaussianBlur stdDeviation="1"/>
<feComposite in2="hardAlpha" operator="arithmetic" k2="-1" k3="1"/>
<feColorMatrix type="matrix" values="0 0 0 0 0 0 0 0 0 0 0 0 0 0 0 0 0 0 0.1 0"/>
<feBlend mode="normal" in2="shape" result="effect2_innerShadow"/>
</filter>
<linearGradient id="paint1_linear" x1="0" y1="0" x2="1" y2="0" gradientUnits="userSpaceOnUse" gradientTransform="matrix(4.96976e-14 138.05 -137.678 8.45313e-15 118.455 -38.05)">
<stop offset="0.00552486" stop-color="#BA2626"/>
<stop offset="0.281768" stop-color="#FFFFFF" stop-opacity="0.4"/>
<stop offset="0.464088" stop-color="#BA2626"/>
</linearGradient>
<path id="path0_fill" d="M 0 0L 55.8491 0L 55.8491 58L 27.9245 50L 0 58L 0 0Z"/>
<path id="path1_stroke_2x" d="M 0 0L 0 -2L -2 -2L -2 0L 0 0ZM 55.8491 0L 57.8491 0L 57.8491 -2L 55.8491 -2L 55.8491 0ZM 55.8491 58L 55.2982 59.9227L 57.8491 60.6534L 57.8491 58L 55.8491 58ZM 0 58L -2 58L -2 60.6534L 0.550815 59.9227L 0 58ZM 27.9245 50L 28.4753 48.0773L 27.9245 47.9195L 27.3737 48.0773L 27.9245 50ZM 0 2L 55.8491 2L 55.8491 -2L 0 -2L 0 2ZM 53.8491 0L 53.8491 58L 57.8491 58L 57.8491 0L 53.8491 0ZM 2 58L 2 0L -2 0L -2 58L 2 58ZM 56.3999 56.0773L 28.4753 48.0773L 27.3737 51.9227L 55.2982 59.9227L 56.3999 56.0773ZM 27.3737 48.0773L -0.550815 56.0773L 0.550815 59.9227L 28.4753 51.9227L 27.3737 48.0773Z"/>
<path id="path2_fill" d="M 14.9207 0L 17.0707 1.40957L 5.05128 20L 2.92715 18.5904L 14.9207 0ZM 4.40368 0.824468C 5.23261 0.824468 5.98383 1.0195 6.65733 1.40957C 7.33084 1.78191 7.85755 2.3227 8.23748 3.03192C 8.63467 3.74114 8.83327 4.55674 8.83327 5.47872C 8.83327 6.40071 8.63467 7.21631 8.23748 7.92553C 7.85755 8.63475 7.33084 9.1844 6.65733 9.57447C 5.98383 9.94681 5.23261 10.133 4.40368 10.133C 3.57475 10.133 2.82354 9.94681 2.15003 9.57447C 1.4938 9.1844 0.967083 8.63475 0.569888 7.92553C 0.189963 7.21631 0 6.40071 0 5.47872C 0 4.55674 0.189963 3.74114 0.569888 3.03192C 0.967083 2.3227 1.4938 1.78191 2.15003 1.40957C 2.82354 1.0195 3.57475 0.824468 4.40368 0.824468ZM 4.40368 2.95213C 3.73018 2.95213 3.24664 3.19149 2.95306 3.67021C 2.67675 4.13121 2.53859 4.73404 2.53859 5.47872C 2.53859 6.20567 2.67675 6.80851 2.95306 7.28723C 3.24664 7.76596 3.73018 8.00532 4.40368 8.00532C 5.64708 8.00532 6.26877 7.16312 6.26877 5.47872C 6.26877 3.79433 5.64708 2.95213 4.40368 2.95213ZM 15.5424 10.133C 16.3713 10.133 17.1226 10.328 17.7961 10.7181C 18.4696 11.0904 18.9963 11.6312 19.3762 12.3404C 19.7561 13.0496 19.9461 13.8652 19.9461 14.7872C 19.9461 15.7092 19.7561 16.5248 19.3762 17.234C 18.9963 17.9433 18.4696 18.4929 17.7961 18.883C 17.1226 19.2553 16.3713 19.4415 15.5424 19.4415C 14.7135 19.4415 13.9623 19.2553 13.2888 18.883C 12.6153 18.4929 12.0799 17.9433 11.6827 17.234C 11.3028 16.5248 11.1128 15.7092 11.1128 14.7872C 11.1128 13.8652 11.3028 13.0496 11.6827 12.3404C 12.0799 11.6312 12.6153 11.0904 13.2888 10.7181C 13.9623 10.328 14.7135 10.133 15.5424 10.133ZM 15.5424 12.2606C 14.8689 12.2606 14.3854 12.5 14.0918 12.9787C 13.8155 13.4397 13.6773 14.0426 13.6773 14.7872C 13.6773 15.5142 13.8155 16.117 14.0918 16.5957C 14.3854 17.0745 14.8689 17.3138 15.5424 17.3138C 16.7858 17.3138 17.4075 16.4716 17.4075 14.7872C 17.4075 13.1028 16.7858 12.2606 15.5424 12.2606Z"/>
</defs>
</svg>
