<svg width="18" height="16" viewBox="0 0 18 16" version="1.1" xmlns="http://www.w3.org/2000/svg" xmlns:xlink="http://www.w3.org/1999/xlink">
<title>Vector</title>
<desc>Created using Figma</desc>
<g id="Canvas" transform="translate(14399 -5817)">
<g id="Vector">
<use xlink:href="#path0_fill" transform="translate(-14399 5817)"/>
<use xlink:href="#path1_fill" transform="translate(-14399 5817)"/>
<use xlink:href="#path2_fill" transform="translate(-14399 5817)"/>
<use xlink:href="#path3_fill" transform="translate(-14399 5817)"/>
<use xlink:href="#path4_fill" transform="translate(-14399 5817)"/>
<use xlink:href="#path5_fill" transform="translate(-14399 5817)"/>
</g>
</g>
<defs>
<path id="path0_fill" d="M 5.13238 1.99954L 16.8676 1.99954C 18.3775 2.03549 18.3775 -0.0354918 16.8676 0.000462821L 5.13238 0.000462821C 3.62254 -0.0354918 3.62254 2.03549 5.13238 1.99954Z"/>
<path id="path1_fill" d="M 16.8676 7.00046L 5.13238 7.00046C 3.62254 6.96451 3.62254 9.03549 5.13238 8.99954L 16.8676 8.99954C 18.3775 9.03549 18.3775 6.96451 16.8676 7.00046Z"/>
<path id="path2_fill" d="M 16.8676 14L 5.13238 14C 3.62254 14 3.62254 16 5.13238 16L 16.8676 16C 18.3775 16 18.3775 14 16.8676 14Z"/>
<path id="path3_fill" d="M 1.02158 14C 0.453237 14 0 14.4437 0 15C 0 15.5563 0.453237 16 1.02158 16C 1.54676 16 2 15.5563 2 15C 2 14.4507 1.54676 14.007 1.02158 14Z"/>
<path id="path4_fill" d="M 1.02158 7C 0.453237 7 0 7.45324 0 7.97842C 0 8.54676 0.453237 9 1.02158 9C 1.54676 9 2 8.54676 2 7.97842C 2 7.45324 1.54676 7 1.02158 7Z"/>
<path id="path5_fill" d="M 1.02158 2.36298e-10C 0.453237 2.36298e-10 0 0.453238 0 1.02158C 0 1.54676 0.453237 2 1.02158 2C 1.54676 2 2 1.54676 2 1.02158C 2 0.453238 1.54676 2.36298e-10 1.02158 2.36298e-10Z"/>
</defs>
</svg>
