<svg width="26" height="26" viewBox="0 0 26 26" version="1.1" xmlns="http://www.w3.org/2000/svg" xmlns:xlink="http://www.w3.org/1999/xlink">
<title>002-google-plus</title>
<desc>Created using Figma</desc>
<g id="Canvas" transform="translate(-522 -8610)">
<g id="002-google-plus">
<g id="Group">
<g id="Vector">
<mask id="mask0_outline_ins">
<use xlink:href="#path0_fill" fill="white" transform="translate(522 8610)"/>
</mask>
<g mask="url(#mask0_outline_ins)">
<use xlink:href="#path1_stroke_2x" transform="translate(522 8610)" fill="#FFFFFF"/>
</g>
</g>
<g id="Group">
<g id="Vector">
<use xlink:href="#path2_fill" transform="translate(538.656 8620.81)" fill="#FFFFFF"/>
</g>
<g id="Vector">
<use xlink:href="#path3_fill" transform="translate(526.966 8617.91)" fill="#FFFFFF"/>
</g>
</g>
</g>
</g>
</g>
<defs>
<path id="path0_fill" d="M 12.9997 0C 20.1496 0 25.9995 5.84988 25.9995 12.9997C 25.9995 20.1496 20.1496 25.9995 12.9997 25.9995C 5.84989 25.9995 0 20.1495 0 12.9997C 0 5.84997 5.84989 0 12.9997 0Z"/>
<path id="path1_stroke_2x" d="M 12.9997 1C 19.5973 1 24.9995 6.40217 24.9995 12.9997L 26.9995 12.9997C 26.9995 5.2976 20.7019 -1 12.9997 -1L 12.9997 1ZM 24.9995 12.9997C 24.9995 19.5973 19.5973 24.9995 12.9997 24.9995L 12.9997 26.9995C 20.7019 26.9995 26.9995 20.7019 26.9995 12.9997L 24.9995 12.9997ZM 12.9997 24.9995C 6.40218 24.9995 1 19.5972 1 12.9997L -1 12.9997C -1 20.7018 5.2976 26.9995 12.9997 26.9995L 12.9997 24.9995ZM 1 12.9997C 1 6.40225 6.40218 1 12.9997 1L 12.9997 -1C 5.2976 -1 -1 5.29769 -1 12.9997L 1 12.9997Z"/>
<path id="path2_fill" d="M 2.92499 2.12441e-07L 2.92499 1.46249L 4.38739 1.46249L 4.38739 2.92499L 2.92499 2.92499L 2.92499 4.38748L 1.46249 4.38748L 1.46249 2.92499L 6.31877e-07 2.92499L 6.31877e-07 1.46249L 1.46249 1.46249L 1.46249 2.12441e-07L 2.92499 2.12441e-07Z"/>
<path id="path3_fill" d="M 1.45248 8.74489C -0.497487 6.79493 -0.497487 3.38247 1.53369 1.4326C 2.99618 -0.0298901 5.10858 -0.354839 6.97732 0.376363L 7.70853 0.782616L 8.52103 1.35139L 7.22106 2.65136L 6.73359 2.32641C 5.59613 1.59521 3.97112 1.75764 2.91497 2.81388C 1.69621 4.03264 1.61499 6.22634 2.91497 7.52631C 4.13373 8.82628 6.32743 8.82628 7.46488 7.52631C 7.78983 7.20136 8.11487 6.7138 8.19608 6.22634L 8.19608 6.06382L 5.27118 6.06382L 5.27118 4.43889L 9.90231 4.43889L 9.98353 4.84515L 9.98353 5.9826C 9.90231 7.03884 9.49606 8.09508 8.76477 8.82628C 6.8149 10.6949 3.40244 10.6949 1.45248 8.74489Z"/>
</defs>
</svg>
