<svg width="26" height="26" viewBox="0 0 26 26" version="1.1" xmlns="http://www.w3.org/2000/svg" xmlns:xlink="http://www.w3.org/1999/xlink">
<title>32px_Info Circle</title>
<desc>Created using Figma</desc>
<g id="Canvas" transform="translate(-67 268)">
<g id="32px_Info Circle">
<g id="Info Circle">
<g id="Vector">
<use xlink:href="#path0_stroke" transform="translate(68.4 -267)" fill="#FFFFFF"/>
</g>
<g id="Vector">
<use xlink:href="#path1_fill" transform="translate(76.7333 -260.5)" fill="#FFFFFF"/>
</g>
</g>
</g>
</g>
<defs>
<path id="path0_stroke" d="M 23.5 12C 23.5 18.3513 18.3513 23.5 12 23.5L 12 24.5C 18.9036 24.5 24.5 18.9036 24.5 12L 23.5 12ZM 12 23.5C 5.64873 23.5 0.5 18.3513 0.5 12L -0.5 12C -0.5 18.9036 5.09644 24.5 12 24.5L 12 23.5ZM 0.5 12C 0.5 5.64873 5.64873 0.5 12 0.5L 12 -0.5C 5.09644 -0.5 -0.5 5.09644 -0.5 12L 0.5 12ZM 12 0.5C 18.3513 0.5 23.5 5.64873 23.5 12L 24.5 12C 24.5 5.09644 18.9036 -0.5 12 -0.5L 12 0.5Z"/>
<path id="path1_fill" d="M 7.33333 9.63097C 6.43434 10.5437 5.28788 11 3.89394 11C 2.76263 11 1.87374 10.7188 1.22727 10.1563C 0.590908 9.59382 0.272727 8.84563 0.272727 7.91172C 0.272727 7.48722 0.333333 7.11578 0.454545 6.7974L 0 6.7974L 0 5.85818L 1.07576 5.85818C 1.41919 5.5398 1.90404 5.26387 2.5303 5.03039L 0 5.03039L 0 4.07525L 4.87879 4.07525C 5.11111 3.90545 5.27273 3.71973 5.36364 3.51809C 5.45454 3.30584 5.5 3.04052 5.5 2.72214C 5.5 2.23396 5.33333 1.85721 5 1.5919C 4.66667 1.32658 4.23737 1.19392 3.71212 1.19392C 3.27778 1.19392 2.87374 1.26821 2.5 1.41679C 2.12626 1.56536 1.74747 1.80415 1.36364 2.13314L 0.590909 1.22576C 1.05555 0.811867 1.5303 0.5041 2.01515 0.30246C 2.5 0.10082 3.07576 0 3.74242 0C 4.35858 0 4.90404 0.116737 5.37879 0.350216C 5.86364 0.573081 6.24242 0.891462 6.51515 1.30536C 6.78788 1.70864 6.92424 2.17559 6.92424 2.70622C 6.92424 3.25808 6.81313 3.71442 6.59091 4.07525L 7.10606 4.07525L 7.10606 5.03039L 5.5303 5.03039C 5.13636 5.24264 4.60101 5.4602 3.92424 5.68307C 3.59091 5.79981 3.42424 5.85818 3.42424 5.85818L 7.10606 5.85818L 7.10606 6.7974L 2 6.7974C 1.81818 7.07332 1.72727 7.46068 1.72727 7.95948C 1.72727 8.5644 1.92929 9.02074 2.33333 9.32851C 2.74747 9.63628 3.27273 9.79016 3.90909 9.79016C 4.43434 9.79016 4.90404 9.69995 5.31818 9.51954C 5.74242 9.33912 6.16162 9.07381 6.57576 8.72359L 7.33333 9.63097Z"/>
</defs>
</svg>
