<svg width="378" height="97" viewBox="0 0 378 97" version="1.1" xmlns="http://www.w3.org/2000/svg" xmlns:xlink="http://www.w3.org/1999/xlink">
<title>arows</title>
<desc>Created using Figma</desc>
<g id="Canvas" transform="translate(-182 -147)">
<g id="arows" filter="url(#filter0_d)">
<g id="Vector 16" filter="url(#filter1_d)">
<use xlink:href="#path0_stroke" transform="matrix(0.498882 0.86667 -0.865379 0.501119 526.79 140)" fill="#01BF1B"/>
</g>
<g id="Vector 17" filter="url(#filter2_d)">
<use xlink:href="#path1_stroke" transform="translate(186 155.97)" fill="url(#paint1_linear)"/>
</g>
</g>
</g>
<defs>
<filter id="filter0_d" filterUnits="userSpaceOnUse" x="182" y="147" width="378" height="97" color-interpolation-filters="sRGB">
<feFlood flood-opacity="0" result="BackgroundImageFix"/>
<feColorMatrix in="SourceAlpha" type="matrix" values="0 0 0 0 0 0 0 0 0 0 0 0 0 0 0 0 0 0 255 0"/>
<feOffset dx="10" dy="14"/>
<feGaussianBlur stdDeviation="6"/>
<feColorMatrix type="matrix" values="0 0 0 0 0 0 0 0 0 0 0 0 0 0 0 0 0 0 0.05 0"/>
<feBlend mode="normal" in2="BackgroundImageFix" result="effect1_dropShadow"/>
<feBlend mode="normal" in="SourceGraphic" in2="effect1_dropShadow" result="shape"/>
</filter>
<filter id="filter1_d" filterUnits="userSpaceOnUse" x="505" y="147" width="55" height="63" color-interpolation-filters="sRGB">
<feFlood flood-opacity="0" result="BackgroundImageFix"/>
<feColorMatrix in="SourceAlpha" type="matrix" values="0 0 0 0 0 0 0 0 0 0 0 0 0 0 0 0 0 0 255 0"/>
<feOffset dx="10" dy="14"/>
<feGaussianBlur stdDeviation="6"/>
<feColorMatrix type="matrix" values="0 0 0 0 0 0 0 0 0 0 0 0 0 0 0 0 0 0 0.05 0"/>
<feBlend mode="normal" in2="BackgroundImageFix" result="effect1_dropShadow"/>
<feBlend mode="normal" in="SourceGraphic" in2="effect1_dropShadow" result="shape"/>
</filter>
<filter id="filter2_d" filterUnits="userSpaceOnUse" x="182" y="154" width="376" height="90" color-interpolation-filters="sRGB">
<feFlood flood-opacity="0" result="BackgroundImageFix"/>
<feColorMatrix in="SourceAlpha" type="matrix" values="0 0 0 0 0 0 0 0 0 0 0 0 0 0 0 0 0 0 255 0"/>
<feOffset dx="10" dy="14"/>
<feGaussianBlur stdDeviation="6"/>
<feColorMatrix type="matrix" values="0 0 0 0 0 0 0 0 0 0 0 0 0 0 0 0 0 0 0.05 0"/>
<feBlend mode="normal" in2="BackgroundImageFix" result="effect1_dropShadow"/>
<feBlend mode="normal" in="SourceGraphic" in2="effect1_dropShadow" result="shape"/>
</filter>
<linearGradient id="paint1_linear" x1="0" y1="0" x2="1" y2="0" gradientUnits="userSpaceOnUse" gradientTransform="matrix(-348.394 -7.67702e-14 -7.70386e-12 -2057.93 348.394 1088.18)">
<stop offset="0" stop-color="#00C01B"/>
<stop offset="1" stop-color="#00C01B" stop-opacity="0"/>
</linearGradient>
<path id="path0_stroke" d="M -1.85741 18.2771C -2.78156 19.3029 -2.69915 20.8837 -1.67333 21.8079C -0.647516 22.732 0.93325 22.6496 1.85741 21.6238L -1.85741 18.2771ZM 17.2304 0.82469L 19.0878 2.49802L 17.2304 0.82469ZM 34.0893 21.6238C 35.0135 22.6496 36.5942 22.732 37.62 21.8079C 38.6459 20.8837 38.7283 19.3029 37.8041 18.2771L 34.0893 21.6238ZM 18.7163 0.824688L 20.5737 -0.848649L 18.7163 0.824688ZM 1.85741 21.6238L 19.0878 2.49802L 15.373 -0.848643L -1.85741 18.2771L 1.85741 21.6238ZM 16.8589 2.49802L 34.0893 21.6238L 37.8041 18.2771L 20.5737 -0.848649L 16.8589 2.49802ZM 19.0878 2.49802C 18.492 3.15936 17.4547 3.15936 16.8589 2.49802L 20.5737 -0.848649C 19.1835 -2.39176 16.7631 -2.39175 15.373 -0.848643L 19.0878 2.49802Z"/>
<path id="path1_stroke" d="M -1.39258 6.4106C 42.5779 49.0659 173.884 106.983 349.422 1.71523L 347.365 -1.71523C 173.352 102.638 44.0378 44.9092 1.39258 3.53956L -1.39258 6.4106Z"/>
</defs>
</svg>
