<svg width="26" height="26" viewBox="0 0 26 26" version="1.1" xmlns="http://www.w3.org/2000/svg" xmlns:xlink="http://www.w3.org/1999/xlink">
<title>facebook</title>
<desc>Created using Figma</desc>
<g id="Canvas" transform="translate(-480 -8610)">
<g id="facebook">
<g id="bg">
<mask id="mask0_outline_ins">
<use xlink:href="#path0_fill" fill="white" transform="translate(480 8610)"/>
</mask>
<g mask="url(#mask0_outline_ins)">
<use xlink:href="#path1_stroke_2x" transform="translate(480 8610)" fill="#FFFFFF"/>
</g>
</g>
<g id="&#239;&#130;&#154;">
<use xlink:href="#path2_fill" transform="translate(489.953 8617.52)" fill="#FFFFFF"/>
</g>
</g>
</g>
<defs>
<path id="path0_fill" d="M 0 12.9997C 0 5.82018 5.82018 0 12.9997 0C 20.1793 0 25.9995 5.82018 25.9995 12.9997C 25.9995 20.1793 20.1793 25.9995 12.9997 25.9995C 5.82018 25.9995 0 20.1793 0 12.9997Z"/>
<path id="path1_stroke_2x" d="M 12.9997 -1C 5.2679 -1 -1 5.2679 -1 12.9997L 1 12.9997C 1 6.37247 6.37247 1 12.9997 1L 12.9997 -1ZM 12.9997 1C 19.627 1 24.9995 6.37247 24.9995 12.9997L 26.9995 12.9997C 26.9995 5.2679 20.7316 -1 12.9997 -1L 12.9997 1ZM 24.9995 12.9997C 24.9995 19.627 19.627 24.9995 12.9997 24.9995L 12.9997 26.9995C 20.7316 26.9995 26.9995 20.7316 26.9995 12.9997L 24.9995 12.9997ZM 12.9997 24.9995C 6.37247 24.9995 1 19.627 1 12.9997L -1 12.9997C -1 20.7316 5.2679 26.9995 12.9997 26.9995L 12.9997 24.9995Z"/>
<path id="path2_fill" d="M 5.64096 0.0783467C 5.46468 0.0522311 4.8575 0 4.15238 0C 2.67685 0 1.66487 0.900987 1.66487 2.5528L 1.66487 3.97609L 0 3.97609L 0 5.90864L 1.66487 5.90864L 1.66487 10.8641L 3.66271 10.8641L 3.66271 5.90864L 5.32105 5.90864L 5.57567 3.97609L 3.66271 3.97609L 3.66271 2.74213C 3.66271 2.18718 3.81287 1.80197 4.61593 1.80197L 5.64096 1.80197L 5.64096 0.0783467Z"/>
</defs>
</svg>
