<svg width="24" height="25" viewBox="0 0 24 25" version="1.1" xmlns="http://www.w3.org/2000/svg" xmlns:xlink="http://www.w3.org/1999/xlink">
<title>twitter</title>
<desc>Created using Figma</desc>
<g id="Canvas" transform="translate(401 455)">
<g id="twitter">
<g id="bg">
<use xlink:href="#path0_fill" transform="translate(-401 -454.008)" fill="#FFFFFF"/>
</g>
<g id="bg">
<use xlink:href="#path0_fill" transform="translate(-401 -453.986)" fill="url(#paint1_radial)"/>
</g>
<g id="bg">
<use xlink:href="#path0_fill" transform="translate(-401 -453.986)" fill="url(#paint2_radial)"/>
</g>
<g id="Vector">
<use xlink:href="#path1_fill" transform="translate(-395 -447.999)" fill="#FFFFFF"/>
<use xlink:href="#path2_fill" transform="translate(-395 -447.999)" fill="#FFFFFF"/>
<use xlink:href="#path3_fill" transform="translate(-395 -447.999)" fill="#FFFFFF"/>
</g>
</g>
</g>
<defs>
<radialGradient id="paint1_radial" cx="0.5" cy="0.5" r="0.5" gradientUnits="userSpaceOnUse" gradientTransform="matrix(0 -47.4704 44.2453 0 -15.7476 49.5287)">
<stop offset="0" stop-color="#FFDD55"/>
<stop offset="0.1" stop-color="#FFDD55"/>
<stop offset="0.5" stop-color="#FF543E"/>
<stop offset="1" stop-color="#C837AB"/>
</radialGradient>
<radialGradient id="paint2_radial" cx="0.5" cy="0.5" r="0.5" gradientUnits="userSpaceOnUse" gradientTransform="matrix(4.17378 20.8067 -85.947 17.1772 36.8665 -17.2667)">
<stop offset="0" stop-color="#3771C8"/>
<stop offset="0.128" stop-color="#3771C8"/>
<stop offset="1" stop-color="#6600FF" stop-opacity="0"/>
</radialGradient>
<path id="path0_fill" d="M 0 11.9745C 0 5.36116 5.36116 0 11.9745 0L 12.0255 0C 18.6388 0 24 5.36116 24 11.9745C 24 18.5878 18.6388 23.949 12.0255 23.949L 11.9745 23.949C 5.36116 23.949 0 18.5878 0 11.9745Z"/>
<path id="path1_fill" fill-rule="evenodd" d="M 8.75763 0L 3.24237 0C 1.45453 0 0 1.45144 0 3.23547L 0 8.73901C 0 10.523 1.45453 11.9745 3.24237 11.9745L 8.75763 11.9745C 10.5455 11.9745 12 10.523 12 8.73901L 12 3.23547C 12 1.45144 10.5455 0 8.75763 0ZM 8.75763 11.0071C 10.0109 11.0071 11.0305 9.98961 11.0305 8.73901L 11.0305 3.23547C 11.0305 1.98484 10.0109 0.967407 8.75763 0.967407L 3.24237 0.967407C 1.98907 0.967407 0.969469 1.98486 0.969469 3.23547L 0.969469 8.73901C 0.969469 9.98964 1.98909 11.0071 3.24237 11.0071L 8.75763 11.0071Z"/>
<path id="path2_fill" fill-rule="evenodd" d="M 8.68561 5.56956C 8.6003 4.99546 8.33782 4.47513 7.92656 4.06475C 7.51531 3.65439 6.99387 3.39245 6.41857 3.30734C 6.15663 3.26859 5.89106 3.26859 5.62915 3.30734C 4.91815 3.41256 4.2908 3.78775 3.86262 4.36381C 3.43444 4.93987 3.25666 5.64786 3.36211 6.3573C 3.46756 7.06676 3.84354 7.69278 4.42083 8.12007C 4.88949 8.46694 5.44519 8.64908 6.01817 8.64908C 6.15099 8.64908 6.28477 8.6393 6.41855 8.6195C 7.12955 8.51427 7.7569 8.13909 8.18508 7.56303C 8.61328 6.98699 8.79106 6.27902 8.68561 5.56956ZM 4.99838 7.34307C 5.36768 7.6164 5.82155 7.72995 6.27635 7.66254C 7.21526 7.52362 7.86581 6.64836 7.72659 5.7115C 7.61456 4.95767 7.03174 4.37611 6.27633 4.26434C 6.19256 4.25192 6.10819 4.24572 6.02384 4.24572C 5.93949 4.24572 5.85513 4.25192 5.77137 4.26432C 5.31654 4.33163 4.91522 4.57163 4.64128 4.94015C 4.36737 5.30867 4.25367 5.76157 4.32113 6.21541C 4.38856 6.66925 4.62907 7.06974 4.99838 7.34307Z"/>
<path id="path3_fill" d="M 9.37615 2.61827C 9.28587 2.52821 9.16092 2.47659 9.03338 2.47659C 8.90583 2.47659 8.78088 2.52818 8.6906 2.61827C 8.60034 2.70836 8.54862 2.83283 8.54862 2.96032C 8.54862 3.0878 8.60034 3.21227 8.6906 3.30236C 8.78088 3.39243 8.90583 3.44405 9.03338 3.44405C 9.16092 3.44405 9.28587 3.39245 9.37615 3.30236C 9.46641 3.21227 9.51813 3.08759 9.51813 2.96032C 9.51813 2.83302 9.46641 2.70834 9.37615 2.61827Z"/>
</defs>
</svg>
