<svg width="30" height="24" viewBox="0 0 30 24" version="1.1" xmlns="http://www.w3.org/2000/svg" xmlns:xlink="http://www.w3.org/1999/xlink">
<title>005-glass-wall</title>
<desc>Created using Figma</desc>
<g id="Canvas" transform="translate(153 267)">
<g id="005-glass-wall">
<g id="Group">
<g id="Group">
<g id="Vector">
<use xlink:href="#path0_fill" transform="translate(-152.8 -267)" fill="#FFFFFF"/>
</g>
</g>
</g>
<g id="Group">
<g id="Group">
<g id="Vector">
<use xlink:href="#path1_fill" transform="translate(-134.058 -252.882)" fill="#FFFFFF"/>
</g>
</g>
</g>
<g id="Group">
<clipPath id="clip-0" clip-rule="evenodd">
<path d="M -151.427 -265.568L -148.494 -265.568L -148.494 -261.82L -151.427 -261.82L -151.427 -265.568Z" fill="#FFFFFF"/>
</clipPath>
<g id="Group" clip-path="url(#clip-0)">
</g>
</g>
<g id="Group">
<clipPath id="clip-1" clip-rule="evenodd">
<path d="M -150.573 -263.956L -147.64 -263.956L -147.64 -260.208L -150.573 -260.208L -150.573 -263.956Z" fill="#FFFFFF"/>
</clipPath>
<g id="Group" clip-path="url(#clip-1)">
</g>
</g>
<g id="Group">
<clipPath id="clip-2" clip-rule="evenodd">
<path d="M -142.057 -265.568L -139.123 -265.568L -139.123 -261.82L -142.057 -261.82L -142.057 -265.568Z" fill="#FFFFFF"/>
</clipPath>
<g id="Group" clip-path="url(#clip-2)">
</g>
</g>
<g id="Group">
<clipPath id="clip-3" clip-rule="evenodd">
<path d="M -141.203 -263.956L -138.269 -263.956L -138.269 -260.207L -141.203 -260.207L -141.203 -263.956Z" fill="#FFFFFF"/>
</clipPath>
<g id="Group" clip-path="url(#clip-3)">
</g>
</g>
<g id="Group">
<clipPath id="clip-4" clip-rule="evenodd">
<path d="M -132.687 -265.567L -129.754 -265.567L -129.754 -261.819L -132.687 -261.819L -132.687 -265.567Z" fill="#FFFFFF"/>
</clipPath>
<g id="Group" clip-path="url(#clip-4)">
</g>
</g>
<g id="Group">
<clipPath id="clip-5" clip-rule="evenodd">
<path d="M -131.833 -263.956L -128.899 -263.956L -128.899 -260.207L -131.833 -260.207L -131.833 -263.956Z" fill="#FFFFFF"/>
</clipPath>
<g id="Group" clip-path="url(#clip-5)">
</g>
</g>
</g>
</g>
<defs>
<path id="path0_fill" d="M 0 3.54015e-08L 0 24L 29 24L 29 3.54015e-08L 0 3.54015e-08ZM 9.37079 18.8976L 2.1913 18.8976C 1.94027 18.8976 1.73677 19.1011 1.73677 19.3522C 1.73677 19.6032 1.94027 19.8067 2.1913 19.8067L 9.37079 19.8067L 9.37079 23.0909L 0.887729 23.0909L 0.887729 0.909121L 9.37074 0.909121L 9.37079 18.8976ZM 18.7415 23.0909L 10.2585 23.0909L 10.2585 19.8067L 18.7415 19.8067L 18.7415 23.0909ZM 28.1123 23.0909L 19.6293 23.0909L 19.6293 19.8067L 28.1122 19.8067L 28.1123 23.0909ZM 28.1123 18.8976L 19.6293 18.8976L 19.6293 17.4661C 19.6293 17.221 19.4305 17.0223 19.1854 17.0223C 18.9403 17.0223 18.7415 17.221 18.7415 17.4661L 18.7415 18.8976L 10.2585 18.8976L 10.2585 0.909121L 18.7415 0.909121L 18.7415 12.6144C 18.7415 12.8595 18.9402 13.0582 19.1853 13.0582C 19.4305 13.0582 19.6292 12.8595 19.6292 12.6144L 19.6292 0.909121L 28.1122 0.909121L 28.1123 18.8976Z"/>
<path id="path1_fill" d="M 0.887729 0.463923L 0.887729 0.443864C 0.887729 0.198725 0.689004 0 0.443864 0C 0.198725 0 0 0.198725 0 0.443864L 0 0.463923C 0 0.709062 0.198725 0.907787 0.443864 0.907787C 0.689004 0.907787 0.887729 0.709062 0.887729 0.463923Z"/>
</defs>
</svg>
