<svg width="17" height="17" viewBox="0 0 17 17" version="1.1" xmlns="http://www.w3.org/2000/svg" xmlns:xlink="http://www.w3.org/1999/xlink">
<title>Group</title>
<desc>Created using Figma</desc>
<g id="Canvas" transform="translate(21457 -515)">
<g id="Group">
<g id="Vector">
<use xlink:href="#path0_fill" transform="matrix(-4.37114e-08 -1 1 -4.37114e-08 -21457 532)"/>
</g>
<g id="Vector">
<use xlink:href="#path1_fill" transform="matrix(-4.37114e-08 -1 1 -4.37114e-08 -21457 525.772)"/>
</g>
<g id="Vector">
<use xlink:href="#path2_fill" transform="matrix(-4.37114e-08 -1 1 -4.37114e-08 -21457 519.543)"/>
</g>
</g>
</g>
<defs>
<path id="path0_fill" d="M 1.64136 16.384C 1.64136 16.7213 1.90515 16.9853 2.24221 16.9853C 2.57928 16.9853 2.84307 16.7213 2.84307 16.384L 2.84307 4.47368C 3.8103 4.20966 4.52839 3.32959 4.52839 2.27351C 4.52839 1.02675 3.5172 -1.39883e-08 2.25687 -1.39883e-08C 0.996539 -1.39883e-08 2.60325e-16 1.02675 2.60325e-16 2.27351C 2.60325e-16 3.31493 0.703439 4.195 1.65601 4.45902L 1.65601 16.384L 1.64136 16.384ZM 1.1724 2.27351C 1.1724 1.6868 1.65601 1.20276 2.24221 1.20276C 2.82841 1.20276 3.31203 1.6868 3.31203 2.27351C 3.31203 2.86022 2.82841 3.34426 2.24221 3.34426C 1.65601 3.34426 1.1724 2.86022 1.1724 2.27351Z"/>
<path id="path1_fill" d="M 2.25687 -1.39883e-08C 1.9198 -1.39883e-08 1.65601 0.264021 1.65601 0.60138L 1.65601 6.7912C 0.703439 7.05522 0 7.93529 0 8.9767C 0 10.0181 0.703439 10.8982 1.65601 11.1622L 1.65601 16.3986C 1.65601 16.736 1.9198 17 2.25687 17C 2.59393 17 2.85772 16.736 2.85772 16.3986L 2.85772 11.1622C 3.82495 10.8982 4.54304 10.0181 4.54304 8.96204C 4.54304 7.90595 3.82495 7.02588 2.85772 6.76186L 2.85772 0.60138C 2.85772 0.264021 2.59393 -1.39883e-08 2.25687 -1.39883e-08ZM 3.35599 8.9767C 3.35599 9.56342 2.87238 10.0475 2.28618 10.0475C 1.69998 10.0475 1.21636 9.56342 1.21636 8.9767C 1.21636 8.38999 1.69998 7.90595 2.28618 7.90595C 2.87238 7.90595 3.35599 8.37532 3.35599 8.9767Z"/>
<path id="path2_fill" d="M 2.87238 12.5263L 2.87238 0.60138C 2.87238 0.264021 2.60859 -1.39883e-08 2.27152 -1.39883e-08C 1.93446 -1.39883e-08 1.67067 0.264021 1.67067 0.60138L 1.67067 12.5263C 0.703439 12.7903 0 13.6704 0 14.7118C 0 15.9586 1.01119 16.9853 2.27152 16.9853C 3.53185 16.9853 4.54304 15.9733 4.54304 14.7118C 4.5577 13.6704 3.8396 12.7903 2.87238 12.5263ZM 2.28618 15.7826C 1.69998 15.7826 1.21636 15.2985 1.21636 14.7118C 1.21636 14.1251 1.69998 13.6411 2.28618 13.6411C 2.87238 13.6411 3.35599 14.1251 3.35599 14.7118C 3.35599 15.2985 2.87238 15.7826 2.28618 15.7826Z"/>
</defs>
</svg>
